%TF.GenerationSoftware,KiCad,Pcbnew,7.0.5*%
%TF.CreationDate,2023-07-13T16:05:46+07:00*%
%TF.ProjectId,pgs,7067732e-6b69-4636-9164-5f7063625858,rev?*%
%TF.SameCoordinates,Original*%
%TF.FileFunction,Copper,L1,Top*%
%TF.FilePolarity,Positive*%
%FSLAX46Y46*%
G04 Gerber Fmt 4.6, Leading zero omitted, Abs format (unit mm)*
G04 Created by KiCad (PCBNEW 7.0.5) date 2023-07-13 16:05:46*
%MOMM*%
%LPD*%
G01*
G04 APERTURE LIST*
G04 Aperture macros list*
%AMRoundRect*
0 Rectangle with rounded corners*
0 $1 Rounding radius*
0 $2 $3 $4 $5 $6 $7 $8 $9 X,Y pos of 4 corners*
0 Add a 4 corners polygon primitive as box body*
4,1,4,$2,$3,$4,$5,$6,$7,$8,$9,$2,$3,0*
0 Add four circle primitives for the rounded corners*
1,1,$1+$1,$2,$3*
1,1,$1+$1,$4,$5*
1,1,$1+$1,$6,$7*
1,1,$1+$1,$8,$9*
0 Add four rect primitives between the rounded corners*
20,1,$1+$1,$2,$3,$4,$5,0*
20,1,$1+$1,$4,$5,$6,$7,0*
20,1,$1+$1,$6,$7,$8,$9,0*
20,1,$1+$1,$8,$9,$2,$3,0*%
G04 Aperture macros list end*
%TA.AperFunction,SMDPad,CuDef*%
%ADD10RoundRect,0.250000X-0.650000X0.412500X-0.650000X-0.412500X0.650000X-0.412500X0.650000X0.412500X0*%
%TD*%
%TA.AperFunction,ComponentPad*%
%ADD11R,1.700000X1.700000*%
%TD*%
%TA.AperFunction,ComponentPad*%
%ADD12O,1.700000X1.700000*%
%TD*%
%TA.AperFunction,SMDPad,CuDef*%
%ADD13RoundRect,0.250000X1.050000X0.550000X-1.050000X0.550000X-1.050000X-0.550000X1.050000X-0.550000X0*%
%TD*%
%TA.AperFunction,SMDPad,CuDef*%
%ADD14RoundRect,0.250000X-0.400000X-0.625000X0.400000X-0.625000X0.400000X0.625000X-0.400000X0.625000X0*%
%TD*%
%TA.AperFunction,SMDPad,CuDef*%
%ADD15RoundRect,0.250000X0.625000X-0.400000X0.625000X0.400000X-0.625000X0.400000X-0.625000X-0.400000X0*%
%TD*%
%TA.AperFunction,SMDPad,CuDef*%
%ADD16RoundRect,0.250000X-0.625000X0.400000X-0.625000X-0.400000X0.625000X-0.400000X0.625000X0.400000X0*%
%TD*%
%TA.AperFunction,SMDPad,CuDef*%
%ADD17R,2.000000X1.500000*%
%TD*%
%TA.AperFunction,SMDPad,CuDef*%
%ADD18R,2.000000X3.800000*%
%TD*%
%TA.AperFunction,SMDPad,CuDef*%
%ADD19R,2.500000X1.000000*%
%TD*%
%TA.AperFunction,SMDPad,CuDef*%
%ADD20R,1.000000X1.800000*%
%TD*%
%TA.AperFunction,ComponentPad*%
%ADD21R,3.000000X3.000000*%
%TD*%
%TA.AperFunction,ComponentPad*%
%ADD22C,3.000000*%
%TD*%
%TA.AperFunction,SMDPad,CuDef*%
%ADD23R,1.000000X2.800000*%
%TD*%
%TA.AperFunction,SMDPad,CuDef*%
%ADD24RoundRect,0.250000X-0.412500X-0.650000X0.412500X-0.650000X0.412500X0.650000X-0.412500X0.650000X0*%
%TD*%
%TA.AperFunction,ComponentPad*%
%ADD25C,0.600000*%
%TD*%
%TA.AperFunction,ComponentPad*%
%ADD26C,1.500000*%
%TD*%
%TA.AperFunction,SMDPad,CuDef*%
%ADD27RoundRect,0.250000X0.550000X-1.050000X0.550000X1.050000X-0.550000X1.050000X-0.550000X-1.050000X0*%
%TD*%
%TA.AperFunction,SMDPad,CuDef*%
%ADD28RoundRect,0.250001X0.624999X-0.462499X0.624999X0.462499X-0.624999X0.462499X-0.624999X-0.462499X0*%
%TD*%
%TA.AperFunction,SMDPad,CuDef*%
%ADD29RoundRect,0.250000X0.650000X-0.412500X0.650000X0.412500X-0.650000X0.412500X-0.650000X-0.412500X0*%
%TD*%
%TA.AperFunction,ComponentPad*%
%ADD30R,1.500000X1.500000*%
%TD*%
%TA.AperFunction,ViaPad*%
%ADD31C,0.800000*%
%TD*%
%TA.AperFunction,Conductor*%
%ADD32C,0.550000*%
%TD*%
%TA.AperFunction,Conductor*%
%ADD33C,0.350000*%
%TD*%
G04 APERTURE END LIST*
%TA.AperFunction,EtchedComponent*%
%TO.C,NT1*%
G36*
X79040000Y-77400000D02*
G01*
X78440000Y-77400000D01*
X78440000Y-76200000D01*
X79040000Y-76200000D01*
X79040000Y-77400000D01*
G37*
%TD.AperFunction*%
%TD*%
D10*
%TO.P,C2,1*%
%TO.N,GND*%
X91420000Y-89877500D03*
%TO.P,C2,2*%
%TO.N,/FLASH*%
X91420000Y-93002500D03*
%TD*%
D11*
%TO.P,J1,1,Pin_1*%
%TO.N,GND*%
X142920000Y-55865000D03*
D12*
%TO.P,J1,2,Pin_2*%
%TO.N,/RX*%
X142920000Y-53325000D03*
%TO.P,J1,3,Pin_3*%
%TO.N,/TX*%
X142920000Y-50785000D03*
%TD*%
D13*
%TO.P,C4,1*%
%TO.N,VCC*%
X113560000Y-52070000D03*
%TO.P,C4,2*%
%TO.N,GND*%
X109960000Y-52070000D03*
%TD*%
D14*
%TO.P,R1,1*%
%TO.N,/VIN*%
X91530000Y-53857500D03*
%TO.P,R1,2*%
%TO.N,/EN_VIN*%
X94630000Y-53857500D03*
%TD*%
D15*
%TO.P,R7,1*%
%TO.N,/LDR_SENSOR*%
X143285000Y-92150000D03*
%TO.P,R7,2*%
%TO.N,VCC*%
X143285000Y-89050000D03*
%TD*%
D16*
%TO.P,R4,1*%
%TO.N,/FLASH_PIN_2*%
X132080000Y-83540000D03*
%TO.P,R4,2*%
%TO.N,/VIN*%
X132080000Y-86640000D03*
%TD*%
D17*
%TO.P,U2,1,GND*%
%TO.N,GND*%
X91880000Y-57095000D03*
%TO.P,U2,2,VO*%
%TO.N,/VIN*%
X91880000Y-59395000D03*
D18*
X98180000Y-59395000D03*
D17*
%TO.P,U2,3,VI*%
%TO.N,VCC*%
X91880000Y-61695000D03*
%TD*%
D19*
%TO.P,U1,22,GPIO1/TXD*%
%TO.N,/TX*%
X124440000Y-73970000D03*
%TO.P,U1,21,GPIO3/RXD*%
%TO.N,/RX*%
X124440000Y-75970000D03*
%TO.P,U1,20,GPIO5*%
%TO.N,unconnected-(U1-GPIO5-Pad20)*%
X124440000Y-77970000D03*
%TO.P,U1,19,GPIO4*%
%TO.N,unconnected-(U1-GPIO4-Pad19)*%
X124440000Y-79970000D03*
%TO.P,U1,18,GPIO0*%
%TO.N,/FLASH*%
X124440000Y-81970000D03*
%TO.P,U1,17,GPIO2*%
%TO.N,/FLASH_PIN_2*%
X124440000Y-83970000D03*
%TO.P,U1,16,GPIO15*%
%TO.N,/FLASH_PIN_15*%
X124440000Y-85970000D03*
%TO.P,U1,15,GND*%
%TO.N,GND*%
X124440000Y-87970000D03*
D20*
%TO.P,U1,14,SCLK*%
%TO.N,unconnected-(U1-SCLK-Pad14)*%
X121840000Y-89470000D03*
%TO.P,U1,13,MOSI*%
%TO.N,unconnected-(U1-MOSI-Pad13)*%
X119840000Y-89470000D03*
%TO.P,U1,12,GPIO10*%
%TO.N,unconnected-(U1-GPIO10-Pad12)*%
X117840000Y-89470000D03*
%TO.P,U1,11,GPIO9*%
%TO.N,unconnected-(U1-GPIO9-Pad11)*%
X115840000Y-89470000D03*
%TO.P,U1,10,MISO*%
%TO.N,unconnected-(U1-MISO-Pad10)*%
X113840000Y-89470000D03*
%TO.P,U1,9,CS0*%
%TO.N,unconnected-(U1-CS0-Pad9)*%
X111840000Y-89470000D03*
D19*
%TO.P,U1,8,VCC*%
%TO.N,/VIN*%
X109240000Y-87970000D03*
%TO.P,U1,7,GPIO13*%
%TO.N,unconnected-(U1-GPIO13-Pad7)*%
X109240000Y-85970000D03*
%TO.P,U1,6,GPIO12*%
%TO.N,/LDR_SENSOR*%
X109240000Y-83970000D03*
%TO.P,U1,5,GPIO14*%
%TO.N,/DHT11*%
X109240000Y-81970000D03*
%TO.P,U1,4,GPIO16*%
%TO.N,/RESET*%
X109240000Y-79970000D03*
%TO.P,U1,3,EN*%
%TO.N,/EN_VIN*%
X109240000Y-77970000D03*
%TO.P,U1,2,ADC*%
%TO.N,/SOIL_SENSOR*%
X109240000Y-75970000D03*
%TO.P,U1,1,~{RST}*%
%TO.N,/RESET*%
X109240000Y-73970000D03*
%TD*%
D16*
%TO.P,R3,1*%
%TO.N,/FLASH_PIN_15*%
X128270000Y-87350000D03*
%TO.P,R3,2*%
%TO.N,GND*%
X128270000Y-90450000D03*
%TD*%
%TO.P,R6,1*%
%TO.N,GND*%
X95250000Y-81000000D03*
%TO.P,R6,2*%
%TO.N,/LED_GND*%
X95250000Y-84100000D03*
%TD*%
D21*
%TO.P,J3,1,Pin_1*%
%TO.N,GND*%
X84470000Y-58420000D03*
D22*
%TO.P,J3,2,Pin_2*%
%TO.N,VCC*%
X84470000Y-53340000D03*
%TD*%
D23*
%TO.P,SW1,1*%
%TO.N,/RESET*%
X85820000Y-73300000D03*
X85820000Y-79100000D03*
%TO.P,SW1,2*%
%TO.N,GND*%
X81820000Y-73300000D03*
X81820000Y-79100000D03*
%TD*%
%TO.P,SW2,1*%
%TO.N,/FLASH*%
X85820000Y-88540000D03*
X85820000Y-94340000D03*
%TO.P,SW2,2*%
%TO.N,GND*%
X81820000Y-88540000D03*
X81820000Y-94340000D03*
%TD*%
D16*
%TO.P,R5,1*%
%TO.N,/FLASH*%
X96520000Y-89890000D03*
%TO.P,R5,2*%
%TO.N,/VIN*%
X96520000Y-92990000D03*
%TD*%
D14*
%TO.P,R2,1*%
%TO.N,/VIN*%
X91530000Y-50800000D03*
%TO.P,R2,2*%
%TO.N,/RESET*%
X94630000Y-50800000D03*
%TD*%
D24*
%TO.P,C6,1*%
%TO.N,GND*%
X139407500Y-64770000D03*
%TO.P,C6,2*%
%TO.N,/SOIL_SENSOR*%
X142532500Y-64770000D03*
%TD*%
D25*
%TO.P,NT1,1,1*%
%TO.N,/VIN*%
X78740000Y-76200000D03*
%TO.P,NT1,2,2*%
%TO.N,/LED*%
X78740000Y-77400000D03*
%TD*%
D21*
%TO.P,J2,1,Pin_1*%
%TO.N,/SOIL_SENSOR*%
X149470000Y-63500000D03*
D22*
%TO.P,J2,2,Pin_2*%
%TO.N,GND*%
X149470000Y-68580000D03*
%TD*%
D26*
%TO.P,R8,1*%
%TO.N,/LDR_SENSOR*%
X150905000Y-92300000D03*
%TO.P,R8,2*%
%TO.N,GND*%
X150905000Y-88900000D03*
%TD*%
D27*
%TO.P,C5,1*%
%TO.N,/VIN*%
X102870000Y-84350000D03*
%TO.P,C5,2*%
%TO.N,GND*%
X102870000Y-80750000D03*
%TD*%
D28*
%TO.P,D1,1,K*%
%TO.N,/LED_GND*%
X91440000Y-84015000D03*
%TO.P,D1,2,A*%
%TO.N,/LED*%
X91440000Y-81040000D03*
%TD*%
D29*
%TO.P,C1,1*%
%TO.N,/VIN*%
X102870000Y-59690000D03*
%TO.P,C1,2*%
%TO.N,GND*%
X102870000Y-56565000D03*
%TD*%
%TO.P,C3,1*%
%TO.N,GND*%
X91420000Y-77762500D03*
%TO.P,C3,2*%
%TO.N,/RESET*%
X91420000Y-74637500D03*
%TD*%
D30*
%TO.P,U3,1,VCC*%
%TO.N,VCC*%
X151130000Y-82550000D03*
D26*
%TO.P,U3,2,IO*%
%TO.N,/DHT11*%
X151130000Y-80010000D03*
%TO.P,U3,3,NC*%
%TO.N,unconnected-(U3-NC-Pad3)*%
X151130000Y-77470000D03*
%TO.P,U3,4,GND*%
%TO.N,GND*%
X151130000Y-74930000D03*
%TD*%
D14*
%TO.P,R9,2*%
%TO.N,/SOIL_SENSOR*%
X142520000Y-68580000D03*
%TO.P,R9,1*%
%TO.N,VCC*%
X139420000Y-68580000D03*
%TD*%
D31*
%TO.N,/VIN*%
X91440000Y-59690000D03*
X97790000Y-59690000D03*
%TD*%
D32*
%TO.N,/RESET*%
X107640000Y-73970000D02*
X109240000Y-73970000D01*
X106680000Y-74930000D02*
X107640000Y-73970000D01*
X106680000Y-76200000D02*
X106680000Y-74930000D01*
X107475000Y-76995000D02*
X106680000Y-76200000D01*
X111285000Y-76995000D02*
X107475000Y-76995000D01*
X111760000Y-77470000D02*
X111285000Y-76995000D01*
X111760000Y-78200000D02*
X111760000Y-77470000D01*
X109990000Y-79970000D02*
X111760000Y-78200000D01*
X109240000Y-79970000D02*
X109990000Y-79970000D01*
%TO.N,/EN_VIN*%
X105410000Y-64419238D02*
X107200000Y-62629238D01*
X107200000Y-56400000D02*
X104657500Y-53857500D01*
X104140000Y-72390000D02*
X105410000Y-71120000D01*
X107200000Y-62629238D02*
X107200000Y-56400000D01*
X104657500Y-53857500D02*
X94630000Y-53857500D01*
X104140000Y-76200000D02*
X104140000Y-72390000D01*
X105910000Y-77970000D02*
X104140000Y-76200000D01*
X109240000Y-77970000D02*
X105910000Y-77970000D01*
X105410000Y-71120000D02*
X105410000Y-64419238D01*
%TO.N,/RESET*%
X106680000Y-80010000D02*
X109220000Y-80010000D01*
X104140000Y-77470000D02*
X106680000Y-80010000D01*
X100330000Y-77470000D02*
X104140000Y-77470000D01*
X109220000Y-80010000D02*
X109240000Y-79970000D01*
X97497500Y-74637500D02*
X100330000Y-77470000D01*
X91420000Y-74637500D02*
X97497500Y-74637500D01*
X108445000Y-72885000D02*
X109220000Y-73660000D01*
X109220000Y-55880000D02*
X109220000Y-64461090D01*
X109220000Y-64461090D02*
X108445000Y-65236090D01*
X104140000Y-50800000D02*
X109220000Y-55880000D01*
X94630000Y-50800000D02*
X104140000Y-50800000D01*
X108445000Y-65236090D02*
X108445000Y-72885000D01*
D33*
%TO.N,GND*%
X105117500Y-56565000D02*
X102870000Y-56565000D01*
X106030000Y-57477500D02*
X105117500Y-56565000D01*
X104140000Y-63500000D02*
X106030000Y-61610000D01*
X100330000Y-63500000D02*
X104140000Y-63500000D01*
X92710000Y-71120000D02*
X100330000Y-63500000D01*
X84000000Y-71120000D02*
X92710000Y-71120000D01*
X106030000Y-61610000D02*
X106030000Y-57477500D01*
X81820000Y-73300000D02*
X84000000Y-71120000D01*
%TO.N,/SOIL_SENSOR*%
X111530000Y-75970000D02*
X109240000Y-75970000D01*
X126440000Y-77470000D02*
X126065000Y-77095000D01*
X126065000Y-77095000D02*
X112655000Y-77095000D01*
X133630000Y-77470000D02*
X126440000Y-77470000D01*
X142520000Y-68580000D02*
X133630000Y-77470000D01*
X112655000Y-77095000D02*
X111530000Y-75970000D01*
D32*
%TO.N,/VIN*%
X91440000Y-59690000D02*
X91145000Y-59395000D01*
X97790000Y-59690000D02*
X98180000Y-59395000D01*
D33*
%TO.N,/FLASH*%
X117190000Y-81970000D02*
X124440000Y-81970000D01*
X112065000Y-87095000D02*
X117190000Y-81970000D01*
X106780000Y-83920000D02*
X106780000Y-86260000D01*
X101600000Y-82550000D02*
X105410000Y-82550000D01*
X100330000Y-83820000D02*
X101600000Y-82550000D01*
X100330000Y-86080000D02*
X100330000Y-83820000D01*
X105410000Y-82550000D02*
X106780000Y-83920000D01*
X96520000Y-89890000D02*
X100330000Y-86080000D01*
X106780000Y-86260000D02*
X107615000Y-87095000D01*
X107615000Y-87095000D02*
X112065000Y-87095000D01*
%TO.N,GND*%
X102620000Y-81000000D02*
X95250000Y-81000000D01*
X102870000Y-80750000D02*
X102620000Y-81000000D01*
D32*
%TO.N,/VIN*%
X102870000Y-86640000D02*
X102870000Y-84350000D01*
X96520000Y-92990000D02*
X102870000Y-86640000D01*
D33*
%TO.N,GND*%
X99060000Y-84810000D02*
X95250000Y-81000000D01*
X97260000Y-87630000D02*
X99060000Y-85830000D01*
X99060000Y-85830000D02*
X99060000Y-84810000D01*
X91440000Y-87630000D02*
X97260000Y-87630000D01*
X91420000Y-89877500D02*
X91420000Y-87650000D01*
X91420000Y-87650000D02*
X91440000Y-87630000D01*
D32*
%TO.N,/VIN*%
X78740000Y-76200000D02*
X78740000Y-73660000D01*
X77770000Y-82850000D02*
X77770000Y-74630000D01*
X77770000Y-74630000D02*
X78740000Y-73660000D01*
X80010000Y-97790000D02*
X77770000Y-95550000D01*
X132080000Y-86640000D02*
X132080000Y-90700152D01*
X132080000Y-90700152D02*
X124990152Y-97790000D01*
X78740000Y-73660000D02*
X78740000Y-71120000D01*
X98180000Y-61840000D02*
X97790000Y-59690000D01*
X78740000Y-71120000D02*
X80010000Y-69850000D01*
X80010000Y-69850000D02*
X90170000Y-69850000D01*
X91440000Y-68580000D02*
X98180000Y-61840000D01*
X90170000Y-69850000D02*
X91440000Y-68580000D01*
X96520000Y-97790000D02*
X80010000Y-97790000D01*
X96520000Y-97790000D02*
X96520000Y-92990000D01*
X124990152Y-97790000D02*
X96520000Y-97790000D01*
X77770000Y-86360000D02*
X77770000Y-82850000D01*
X77770000Y-95550000D02*
X77770000Y-86360000D01*
X106490000Y-87970000D02*
X109240000Y-87970000D01*
X102870000Y-84350000D02*
X106490000Y-87970000D01*
%TO.N,/LED_GND*%
X95165000Y-84015000D02*
X95250000Y-84100000D01*
X91440000Y-84015000D02*
X95165000Y-84015000D01*
D33*
%TO.N,/FLASH*%
X94532500Y-89890000D02*
X96520000Y-89890000D01*
X91420000Y-93002500D02*
X94532500Y-89890000D01*
X86957500Y-88540000D02*
X91420000Y-93002500D01*
X85820000Y-88540000D02*
X86957500Y-88540000D01*
X85820000Y-94340000D02*
X85820000Y-88540000D01*
%TO.N,GND*%
X91880000Y-57095000D02*
X94655000Y-57095000D01*
X96520000Y-55230000D02*
X93980000Y-55230000D01*
X101535000Y-55230000D02*
X96520000Y-55230000D01*
X94655000Y-57095000D02*
X96520000Y-55230000D01*
X107440000Y-49550000D02*
X109960000Y-52070000D01*
X93960000Y-49550000D02*
X107440000Y-49550000D01*
X93227748Y-50282252D02*
X93960000Y-49550000D01*
X93227748Y-54477748D02*
X93227748Y-50282252D01*
X93980000Y-55230000D02*
X93227748Y-54477748D01*
X102870000Y-56565000D02*
X101535000Y-55230000D01*
D32*
%TO.N,/VIN*%
X102575000Y-59395000D02*
X98180000Y-59395000D01*
X102870000Y-59690000D02*
X102575000Y-59395000D01*
D33*
%TO.N,GND*%
X81820000Y-79100000D02*
X81820000Y-73300000D01*
X84000000Y-81280000D02*
X81820000Y-79100000D01*
X86360000Y-81280000D02*
X84000000Y-81280000D01*
X89877500Y-77762500D02*
X86360000Y-81280000D01*
X91420000Y-77762500D02*
X89877500Y-77762500D01*
X94657500Y-81000000D02*
X91420000Y-77762500D01*
X89550000Y-63500000D02*
X84470000Y-58420000D01*
X93980000Y-57150000D02*
X93980000Y-63500000D01*
X93925000Y-57095000D02*
X93980000Y-57150000D01*
X91880000Y-57095000D02*
X93925000Y-57095000D01*
X93980000Y-63500000D02*
X89550000Y-63500000D01*
D32*
%TO.N,/RESET*%
X109220000Y-73950000D02*
X109240000Y-73970000D01*
X109220000Y-73660000D02*
X109220000Y-73950000D01*
%TO.N,/VIN*%
X91880000Y-59395000D02*
X91440000Y-59690000D01*
X89652500Y-53857500D02*
X91530000Y-53857500D01*
X88900000Y-54610000D02*
X89652500Y-53857500D01*
X88900000Y-57150000D02*
X88900000Y-54610000D01*
X91145000Y-59395000D02*
X88900000Y-57150000D01*
X91530000Y-50800000D02*
X91530000Y-53857500D01*
%TO.N,VCC*%
X154940000Y-78740000D02*
X154940000Y-57150000D01*
X151130000Y-82550000D02*
X154940000Y-78740000D01*
X154195000Y-48785000D02*
X112285000Y-48785000D01*
X154940000Y-49530000D02*
X154195000Y-48785000D01*
X154940000Y-57150000D02*
X154940000Y-49530000D01*
X152400000Y-59690000D02*
X154940000Y-57150000D01*
X138430000Y-59690000D02*
X152400000Y-59690000D01*
X138270000Y-59850000D02*
X138430000Y-59690000D01*
X138270000Y-67430000D02*
X138270000Y-59850000D01*
X139420000Y-68580000D02*
X138270000Y-67430000D01*
X89025000Y-48785000D02*
X84470000Y-53340000D01*
X112285000Y-48785000D02*
X89025000Y-48785000D01*
X113560000Y-50060000D02*
X112285000Y-48785000D01*
X113560000Y-52070000D02*
X113560000Y-50060000D01*
X151130000Y-83820000D02*
X151130000Y-82550000D01*
D33*
%TO.N,/RX*%
X130810000Y-70350000D02*
X125190000Y-75970000D01*
X125190000Y-75970000D02*
X124440000Y-75970000D01*
X132095000Y-53325000D02*
X130810000Y-54610000D01*
X142920000Y-53325000D02*
X132095000Y-53325000D01*
X130810000Y-54610000D02*
X130810000Y-70350000D01*
%TO.N,/TX*%
X130825000Y-50785000D02*
X142920000Y-50785000D01*
X127000000Y-71410000D02*
X127000000Y-54610000D01*
X124440000Y-73970000D02*
X127000000Y-71410000D01*
X127000000Y-54610000D02*
X130825000Y-50785000D01*
%TO.N,/SOIL_SENSOR*%
X143510000Y-71120000D02*
X143510000Y-69570000D01*
X144780000Y-72390000D02*
X143510000Y-71120000D01*
X151130000Y-72390000D02*
X144780000Y-72390000D01*
X152400000Y-71120000D02*
X151130000Y-72390000D01*
X152400000Y-66430000D02*
X152400000Y-71120000D01*
X149470000Y-63500000D02*
X152400000Y-66430000D01*
X143510000Y-69570000D02*
X142520000Y-68580000D01*
D32*
%TO.N,GND*%
X143510000Y-62230000D02*
X141947500Y-62230000D01*
X141947500Y-62230000D02*
X139407500Y-64770000D01*
X144780000Y-63500000D02*
X143510000Y-62230000D01*
X144780000Y-67310000D02*
X144780000Y-63500000D01*
X146050000Y-68580000D02*
X144780000Y-67310000D01*
X149470000Y-68580000D02*
X146050000Y-68580000D01*
D33*
%TO.N,/SOIL_SENSOR*%
X142532500Y-68567500D02*
X142520000Y-68580000D01*
X142532500Y-64770000D02*
X142532500Y-68567500D01*
D32*
%TO.N,/FLASH_PIN_2*%
X132080000Y-83540000D02*
X131650000Y-83970000D01*
X131650000Y-83970000D02*
X124440000Y-83970000D01*
D33*
%TO.N,/LDR_SENSOR*%
X112880000Y-83970000D02*
X109240000Y-83970000D01*
X135890000Y-81280000D02*
X135455000Y-80845000D01*
X135455000Y-80845000D02*
X116005000Y-80845000D01*
X135890000Y-84755000D02*
X135890000Y-81280000D01*
X116005000Y-80845000D02*
X112880000Y-83970000D01*
X143285000Y-92150000D02*
X135890000Y-84755000D01*
D32*
%TO.N,/FLASH_PIN_15*%
X126890000Y-85970000D02*
X128270000Y-87350000D01*
X124440000Y-85970000D02*
X126890000Y-85970000D01*
%TO.N,VCC*%
X149860000Y-85090000D02*
X151130000Y-83820000D01*
X147245000Y-85090000D02*
X149860000Y-85090000D01*
X143285000Y-89050000D02*
X147245000Y-85090000D01*
D33*
%TO.N,/LDR_SENSOR*%
X143435000Y-92300000D02*
X143285000Y-92150000D01*
X150905000Y-92300000D02*
X143435000Y-92300000D01*
%TO.N,/DHT11*%
X109990000Y-81970000D02*
X109240000Y-81970000D01*
X113115000Y-78845000D02*
X109990000Y-81970000D01*
X149965000Y-78845000D02*
X113115000Y-78845000D01*
X151130000Y-80010000D02*
X149965000Y-78845000D01*
D32*
%TO.N,/LED*%
X91200000Y-81280000D02*
X91440000Y-81040000D01*
X87630000Y-82550000D02*
X88900000Y-81280000D01*
X81280000Y-82550000D02*
X87630000Y-82550000D01*
X78740000Y-80010000D02*
X81280000Y-82550000D01*
X78740000Y-77400000D02*
X78740000Y-80010000D01*
X88900000Y-81280000D02*
X91200000Y-81280000D01*
%TO.N,/RESET*%
X90082500Y-73300000D02*
X85820000Y-73300000D01*
X91420000Y-74637500D02*
X90082500Y-73300000D01*
X85820000Y-73300000D02*
X85820000Y-79100000D01*
%TO.N,VCC*%
X87630000Y-54610000D02*
X86360000Y-53340000D01*
X86360000Y-53340000D02*
X84470000Y-53340000D01*
X87630000Y-57695000D02*
X87630000Y-54610000D01*
X91630000Y-61695000D02*
X87630000Y-57695000D01*
X91880000Y-61695000D02*
X91630000Y-61695000D01*
%TD*%
%TA.AperFunction,Conductor*%
%TO.N,GND*%
G36*
X155653834Y-79225403D02*
G01*
X155709767Y-79267275D01*
X155734184Y-79332739D01*
X155734500Y-79341585D01*
X155734500Y-98685500D01*
X155714815Y-98752539D01*
X155662011Y-98798294D01*
X155610500Y-98809500D01*
X125109025Y-98809500D01*
X125041986Y-98789815D01*
X124996231Y-98737011D01*
X124986287Y-98667853D01*
X125015312Y-98604297D01*
X125074090Y-98566523D01*
X125081430Y-98564610D01*
X125091885Y-98562223D01*
X125116869Y-98556520D01*
X125123705Y-98555359D01*
X125163809Y-98550841D01*
X125201891Y-98537514D01*
X125208564Y-98535591D01*
X125247904Y-98526613D01*
X125284270Y-98509099D01*
X125290671Y-98506448D01*
X125328758Y-98493122D01*
X125362915Y-98471658D01*
X125368997Y-98468297D01*
X125405354Y-98450790D01*
X125436908Y-98425625D01*
X125442566Y-98421611D01*
X125476728Y-98400147D01*
X125600299Y-98276576D01*
X125600299Y-98276574D01*
X125610507Y-98266367D01*
X125610508Y-98266364D01*
X132659157Y-91217718D01*
X132694941Y-91181934D01*
X132697812Y-91174528D01*
X132711621Y-91152549D01*
X132715623Y-91146911D01*
X132740790Y-91115354D01*
X132758297Y-91078997D01*
X132761661Y-91072911D01*
X132783122Y-91038758D01*
X132796448Y-91000671D01*
X132799099Y-90994270D01*
X132816613Y-90957904D01*
X132825591Y-90918564D01*
X132827514Y-90911893D01*
X132829159Y-90907191D01*
X132840841Y-90873809D01*
X132845358Y-90833708D01*
X132846522Y-90826861D01*
X132849504Y-90813797D01*
X132855500Y-90787530D01*
X132855500Y-90612774D01*
X132855500Y-90612773D01*
X132855500Y-87870300D01*
X132875185Y-87803261D01*
X132927989Y-87757506D01*
X132940482Y-87752599D01*
X133024334Y-87724814D01*
X133173656Y-87632712D01*
X133297712Y-87508656D01*
X133389814Y-87359334D01*
X133444999Y-87192797D01*
X133455500Y-87090009D01*
X133455499Y-86189992D01*
X133454459Y-86179815D01*
X133444999Y-86087203D01*
X133444998Y-86087200D01*
X133444207Y-86084813D01*
X133389814Y-85920666D01*
X133297712Y-85771344D01*
X133173656Y-85647288D01*
X133059008Y-85576573D01*
X133024336Y-85555187D01*
X133024331Y-85555185D01*
X133022862Y-85554698D01*
X132857797Y-85500001D01*
X132857795Y-85500000D01*
X132755010Y-85489500D01*
X131404998Y-85489500D01*
X131404981Y-85489501D01*
X131302203Y-85500000D01*
X131302200Y-85500001D01*
X131135668Y-85555185D01*
X131135663Y-85555187D01*
X130986342Y-85647289D01*
X130862289Y-85771342D01*
X130770187Y-85920663D01*
X130770185Y-85920666D01*
X130770186Y-85920666D01*
X130715001Y-86087203D01*
X130715001Y-86087204D01*
X130715000Y-86087204D01*
X130704500Y-86189983D01*
X130704500Y-87090001D01*
X130704501Y-87090019D01*
X130715000Y-87192796D01*
X130715001Y-87192799D01*
X130770185Y-87359331D01*
X130770186Y-87359334D01*
X130862288Y-87508656D01*
X130986344Y-87632712D01*
X131135666Y-87724814D01*
X131219505Y-87752595D01*
X131276948Y-87792366D01*
X131303772Y-87856882D01*
X131304500Y-87870300D01*
X131304500Y-90327567D01*
X131284815Y-90394606D01*
X131268181Y-90415248D01*
X124705249Y-96978181D01*
X124643926Y-97011666D01*
X124617568Y-97014500D01*
X97419500Y-97014500D01*
X97352461Y-96994815D01*
X97306706Y-96942011D01*
X97295500Y-96890500D01*
X97295500Y-94220300D01*
X97315185Y-94153261D01*
X97367989Y-94107506D01*
X97380482Y-94102599D01*
X97464334Y-94074814D01*
X97613656Y-93982712D01*
X97737712Y-93858656D01*
X97829814Y-93709334D01*
X97884999Y-93542797D01*
X97895500Y-93440009D01*
X97895499Y-92762582D01*
X97915183Y-92695544D01*
X97931813Y-92674907D01*
X103356573Y-87250148D01*
X103356576Y-87250147D01*
X103480147Y-87126576D01*
X103501611Y-87092414D01*
X103505625Y-87086756D01*
X103530790Y-87055202D01*
X103548297Y-87018845D01*
X103551661Y-87012759D01*
X103573122Y-86978606D01*
X103586448Y-86940519D01*
X103589099Y-86934118D01*
X103606613Y-86897752D01*
X103615591Y-86858412D01*
X103617514Y-86851741D01*
X103619159Y-86847039D01*
X103630841Y-86813657D01*
X103635358Y-86773556D01*
X103636522Y-86766709D01*
X103636870Y-86765185D01*
X103645500Y-86727378D01*
X103645500Y-86552622D01*
X103645500Y-86521584D01*
X103665185Y-86454545D01*
X103717989Y-86408790D01*
X103787147Y-86398846D01*
X103850703Y-86427871D01*
X103857181Y-86433903D01*
X105877510Y-88454232D01*
X105877520Y-88454243D01*
X105879852Y-88456575D01*
X105879853Y-88456576D01*
X106003424Y-88580147D01*
X106037585Y-88601612D01*
X106043254Y-88605635D01*
X106074798Y-88630790D01*
X106111155Y-88648298D01*
X106117235Y-88651658D01*
X106151394Y-88673122D01*
X106189470Y-88686445D01*
X106195896Y-88689107D01*
X106232248Y-88706613D01*
X106271591Y-88715592D01*
X106278255Y-88717512D01*
X106316343Y-88730841D01*
X106356433Y-88735357D01*
X106363291Y-88736523D01*
X106376335Y-88739500D01*
X106402622Y-88745500D01*
X106446448Y-88745500D01*
X107508965Y-88745500D01*
X107576004Y-88765185D01*
X107608232Y-88795190D01*
X107632449Y-88827541D01*
X107632452Y-88827544D01*
X107632454Y-88827546D01*
X107632457Y-88827548D01*
X107747664Y-88913793D01*
X107747671Y-88913797D01*
X107882517Y-88964091D01*
X107882516Y-88964091D01*
X107888507Y-88964735D01*
X107942127Y-88970500D01*
X110537872Y-88970499D01*
X110597483Y-88964091D01*
X110672169Y-88936234D01*
X110741857Y-88931251D01*
X110803181Y-88964735D01*
X110836666Y-89026058D01*
X110839500Y-89052417D01*
X110839500Y-90417870D01*
X110839501Y-90417876D01*
X110845908Y-90477483D01*
X110896202Y-90612328D01*
X110896206Y-90612335D01*
X110982452Y-90727544D01*
X110982455Y-90727547D01*
X111097664Y-90813793D01*
X111097671Y-90813797D01*
X111232517Y-90864091D01*
X111232516Y-90864091D01*
X111239444Y-90864835D01*
X111292127Y-90870500D01*
X112387872Y-90870499D01*
X112447483Y-90864091D01*
X112582331Y-90813796D01*
X112697546Y-90727546D01*
X112740734Y-90669854D01*
X112796667Y-90627984D01*
X112866359Y-90623000D01*
X112927682Y-90656485D01*
X112939263Y-90669850D01*
X112982454Y-90727546D01*
X113024012Y-90758656D01*
X113097664Y-90813793D01*
X113097671Y-90813797D01*
X113232517Y-90864091D01*
X113232516Y-90864091D01*
X113239444Y-90864835D01*
X113292127Y-90870500D01*
X114387872Y-90870499D01*
X114447483Y-90864091D01*
X114582331Y-90813796D01*
X114697546Y-90727546D01*
X114740734Y-90669854D01*
X114796667Y-90627984D01*
X114866359Y-90623000D01*
X114927682Y-90656485D01*
X114939263Y-90669850D01*
X114982454Y-90727546D01*
X115024012Y-90758656D01*
X115097664Y-90813793D01*
X115097671Y-90813797D01*
X115232517Y-90864091D01*
X115232516Y-90864091D01*
X115239444Y-90864835D01*
X115292127Y-90870500D01*
X116387872Y-90870499D01*
X116447483Y-90864091D01*
X116582331Y-90813796D01*
X116697546Y-90727546D01*
X116740734Y-90669854D01*
X116796667Y-90627984D01*
X116866359Y-90623000D01*
X116927682Y-90656485D01*
X116939263Y-90669850D01*
X116982454Y-90727546D01*
X117024012Y-90758656D01*
X117097664Y-90813793D01*
X117097671Y-90813797D01*
X117232517Y-90864091D01*
X117232516Y-90864091D01*
X117239444Y-90864835D01*
X117292127Y-90870500D01*
X118387872Y-90870499D01*
X118447483Y-90864091D01*
X118582331Y-90813796D01*
X118697546Y-90727546D01*
X118740734Y-90669854D01*
X118796667Y-90627984D01*
X118866359Y-90623000D01*
X118927682Y-90656485D01*
X118939263Y-90669850D01*
X118982454Y-90727546D01*
X119024012Y-90758656D01*
X119097664Y-90813793D01*
X119097671Y-90813797D01*
X119232517Y-90864091D01*
X119232516Y-90864091D01*
X119239444Y-90864835D01*
X119292127Y-90870500D01*
X120387872Y-90870499D01*
X120447483Y-90864091D01*
X120582331Y-90813796D01*
X120697546Y-90727546D01*
X120740734Y-90669854D01*
X120796667Y-90627984D01*
X120866359Y-90623000D01*
X120927682Y-90656485D01*
X120939263Y-90669850D01*
X120982454Y-90727546D01*
X121024012Y-90758656D01*
X121097664Y-90813793D01*
X121097671Y-90813797D01*
X121232517Y-90864091D01*
X121232516Y-90864091D01*
X121239444Y-90864835D01*
X121292127Y-90870500D01*
X122387872Y-90870499D01*
X122447483Y-90864091D01*
X122582331Y-90813796D01*
X122697546Y-90727546D01*
X122718167Y-90700000D01*
X126895001Y-90700000D01*
X126895001Y-90899986D01*
X126905494Y-91002697D01*
X126960641Y-91169119D01*
X126960643Y-91169124D01*
X127052684Y-91318345D01*
X127176654Y-91442315D01*
X127325875Y-91534356D01*
X127325880Y-91534358D01*
X127492302Y-91589505D01*
X127492309Y-91589506D01*
X127595019Y-91599999D01*
X128019999Y-91599999D01*
X128020000Y-91599998D01*
X128020000Y-90700000D01*
X128519999Y-90700000D01*
X128519999Y-91599998D01*
X128520000Y-91599999D01*
X128944972Y-91599999D01*
X128944986Y-91599998D01*
X129047697Y-91589505D01*
X129214119Y-91534358D01*
X129214124Y-91534356D01*
X129363345Y-91442315D01*
X129487315Y-91318345D01*
X129579356Y-91169124D01*
X129579358Y-91169119D01*
X129634505Y-91002697D01*
X129634506Y-91002690D01*
X129644999Y-90899986D01*
X129645000Y-90899973D01*
X129645000Y-90700000D01*
X128519999Y-90700000D01*
X128020000Y-90700000D01*
X126895001Y-90700000D01*
X122718167Y-90700000D01*
X122783796Y-90612331D01*
X122834091Y-90477483D01*
X122840500Y-90417873D01*
X122840500Y-90200000D01*
X126895000Y-90200000D01*
X128019999Y-90200000D01*
X128019999Y-89300000D01*
X128519999Y-89300000D01*
X128519999Y-90199999D01*
X128520001Y-90200000D01*
X129644999Y-90200000D01*
X129644999Y-90000028D01*
X129644998Y-90000013D01*
X129634505Y-89897302D01*
X129579358Y-89730880D01*
X129579356Y-89730875D01*
X129487315Y-89581654D01*
X129363345Y-89457684D01*
X129214124Y-89365643D01*
X129214119Y-89365641D01*
X129047697Y-89310494D01*
X129047690Y-89310493D01*
X128944986Y-89300000D01*
X128519999Y-89300000D01*
X128019999Y-89300000D01*
X127595028Y-89300000D01*
X127595012Y-89300001D01*
X127492302Y-89310494D01*
X127325880Y-89365641D01*
X127325875Y-89365643D01*
X127176654Y-89457684D01*
X127052684Y-89581654D01*
X126960643Y-89730875D01*
X126960641Y-89730880D01*
X126905494Y-89897302D01*
X126905493Y-89897309D01*
X126895000Y-90000013D01*
X126895000Y-90200000D01*
X122840500Y-90200000D01*
X122840499Y-89051883D01*
X122860184Y-88984845D01*
X122912987Y-88939090D01*
X122982146Y-88929146D01*
X123007833Y-88935702D01*
X123082623Y-88963597D01*
X123082627Y-88963598D01*
X123142155Y-88969999D01*
X123142172Y-88970000D01*
X124190000Y-88970000D01*
X124190000Y-88220000D01*
X124690000Y-88220000D01*
X124690000Y-88970000D01*
X125737828Y-88970000D01*
X125737844Y-88969999D01*
X125797372Y-88963598D01*
X125797379Y-88963596D01*
X125932086Y-88913354D01*
X125932093Y-88913350D01*
X126047187Y-88827190D01*
X126047190Y-88827187D01*
X126133350Y-88712093D01*
X126133354Y-88712086D01*
X126183596Y-88577379D01*
X126183598Y-88577372D01*
X126189999Y-88517844D01*
X126190000Y-88517827D01*
X126190000Y-88220000D01*
X124690000Y-88220000D01*
X124190000Y-88220000D01*
X122748897Y-88220000D01*
X122681858Y-88200315D01*
X122674596Y-88195273D01*
X122582331Y-88126204D01*
X122582328Y-88126202D01*
X122447482Y-88075908D01*
X122447483Y-88075908D01*
X122387883Y-88069501D01*
X122387881Y-88069500D01*
X122387873Y-88069500D01*
X122387864Y-88069500D01*
X121292129Y-88069500D01*
X121292123Y-88069501D01*
X121232516Y-88075908D01*
X121097671Y-88126202D01*
X121097664Y-88126206D01*
X120982455Y-88212452D01*
X120939266Y-88270145D01*
X120883332Y-88312015D01*
X120813640Y-88316999D01*
X120752317Y-88283513D01*
X120740734Y-88270145D01*
X120703195Y-88220000D01*
X120697546Y-88212454D01*
X120697544Y-88212453D01*
X120697544Y-88212452D01*
X120582335Y-88126206D01*
X120582328Y-88126202D01*
X120447482Y-88075908D01*
X120447483Y-88075908D01*
X120387883Y-88069501D01*
X120387881Y-88069500D01*
X120387873Y-88069500D01*
X120387864Y-88069500D01*
X119292129Y-88069500D01*
X119292123Y-88069501D01*
X119232516Y-88075908D01*
X119097671Y-88126202D01*
X119097664Y-88126206D01*
X118982455Y-88212452D01*
X118939266Y-88270145D01*
X118883332Y-88312015D01*
X118813640Y-88316999D01*
X118752317Y-88283513D01*
X118740734Y-88270145D01*
X118703195Y-88220000D01*
X118697546Y-88212454D01*
X118697544Y-88212453D01*
X118697544Y-88212452D01*
X118582335Y-88126206D01*
X118582328Y-88126202D01*
X118447482Y-88075908D01*
X118447483Y-88075908D01*
X118387883Y-88069501D01*
X118387881Y-88069500D01*
X118387873Y-88069500D01*
X118387864Y-88069500D01*
X117292129Y-88069500D01*
X117292123Y-88069501D01*
X117232516Y-88075908D01*
X117097671Y-88126202D01*
X117097664Y-88126206D01*
X116982455Y-88212452D01*
X116939266Y-88270145D01*
X116883332Y-88312015D01*
X116813640Y-88316999D01*
X116752317Y-88283513D01*
X116740734Y-88270145D01*
X116703195Y-88220000D01*
X116697546Y-88212454D01*
X116697544Y-88212453D01*
X116697544Y-88212452D01*
X116582335Y-88126206D01*
X116582328Y-88126202D01*
X116447482Y-88075908D01*
X116447483Y-88075908D01*
X116387883Y-88069501D01*
X116387881Y-88069500D01*
X116387873Y-88069500D01*
X116387864Y-88069500D01*
X115292129Y-88069500D01*
X115292123Y-88069501D01*
X115232516Y-88075908D01*
X115097671Y-88126202D01*
X115097664Y-88126206D01*
X114982455Y-88212452D01*
X114939266Y-88270145D01*
X114883332Y-88312015D01*
X114813640Y-88316999D01*
X114752317Y-88283513D01*
X114740734Y-88270145D01*
X114703195Y-88220000D01*
X114697546Y-88212454D01*
X114697544Y-88212453D01*
X114697544Y-88212452D01*
X114582335Y-88126206D01*
X114582328Y-88126202D01*
X114447482Y-88075908D01*
X114447483Y-88075908D01*
X114387883Y-88069501D01*
X114387881Y-88069500D01*
X114387873Y-88069500D01*
X114387864Y-88069500D01*
X113292129Y-88069500D01*
X113292123Y-88069501D01*
X113232516Y-88075908D01*
X113097671Y-88126202D01*
X113097664Y-88126206D01*
X112982455Y-88212452D01*
X112939266Y-88270145D01*
X112883332Y-88312015D01*
X112813640Y-88316999D01*
X112752317Y-88283513D01*
X112740734Y-88270145D01*
X112703195Y-88220000D01*
X112697546Y-88212454D01*
X112697544Y-88212453D01*
X112697544Y-88212452D01*
X112582335Y-88126206D01*
X112582328Y-88126202D01*
X112447482Y-88075908D01*
X112447483Y-88075908D01*
X112387883Y-88069501D01*
X112387881Y-88069500D01*
X112387873Y-88069500D01*
X112387864Y-88069500D01*
X111292129Y-88069500D01*
X111292123Y-88069501D01*
X111232515Y-88075909D01*
X111157831Y-88103764D01*
X111088140Y-88108748D01*
X111026817Y-88075262D01*
X110993333Y-88013939D01*
X110990499Y-87987582D01*
X110990499Y-87894500D01*
X111010184Y-87827461D01*
X111062988Y-87781706D01*
X111114499Y-87770500D01*
X112042722Y-87770500D01*
X112046466Y-87770613D01*
X112106082Y-87774219D01*
X112106082Y-87774218D01*
X112106085Y-87774219D01*
X112142327Y-87767577D01*
X112164836Y-87763453D01*
X112168540Y-87762889D01*
X112189888Y-87760296D01*
X112227845Y-87755688D01*
X112236605Y-87752365D01*
X112258221Y-87746338D01*
X112267439Y-87744650D01*
X112321916Y-87720132D01*
X112325358Y-87718705D01*
X112381226Y-87697518D01*
X112388933Y-87692197D01*
X112408480Y-87681172D01*
X112417028Y-87677326D01*
X112464066Y-87640472D01*
X112467059Y-87638269D01*
X112516229Y-87604332D01*
X112555852Y-87559605D01*
X112558386Y-87556913D01*
X117433481Y-82681819D01*
X117494805Y-82648334D01*
X117521163Y-82645500D01*
X122636139Y-82645500D01*
X122703178Y-82665185D01*
X122740637Y-82705418D01*
X122740888Y-82705231D01*
X122742635Y-82707565D01*
X122744973Y-82710076D01*
X122746207Y-82712336D01*
X122832452Y-82827544D01*
X122832453Y-82827544D01*
X122832454Y-82827546D01*
X122861615Y-82849376D01*
X122890145Y-82870734D01*
X122932015Y-82926668D01*
X122936999Y-82996360D01*
X122903513Y-83057683D01*
X122890145Y-83069266D01*
X122832452Y-83112455D01*
X122746206Y-83227664D01*
X122746202Y-83227671D01*
X122695908Y-83362517D01*
X122689501Y-83422116D01*
X122689500Y-83422135D01*
X122689500Y-84517870D01*
X122689501Y-84517876D01*
X122695908Y-84577483D01*
X122746202Y-84712328D01*
X122746206Y-84712335D01*
X122832452Y-84827544D01*
X122832453Y-84827544D01*
X122832454Y-84827546D01*
X122861615Y-84849376D01*
X122890145Y-84870734D01*
X122932015Y-84926668D01*
X122936999Y-84996360D01*
X122903513Y-85057683D01*
X122890145Y-85069266D01*
X122832452Y-85112455D01*
X122746206Y-85227664D01*
X122746202Y-85227671D01*
X122695908Y-85362517D01*
X122689501Y-85422116D01*
X122689501Y-85422123D01*
X122689500Y-85422135D01*
X122689500Y-86517870D01*
X122689501Y-86517876D01*
X122695908Y-86577483D01*
X122746202Y-86712328D01*
X122746206Y-86712335D01*
X122832452Y-86827544D01*
X122832453Y-86827544D01*
X122832454Y-86827546D01*
X122864774Y-86851741D01*
X122890562Y-86871046D01*
X122932432Y-86926980D01*
X122937416Y-86996672D01*
X122903930Y-87057994D01*
X122890562Y-87069578D01*
X122832809Y-87112812D01*
X122746649Y-87227906D01*
X122746645Y-87227913D01*
X122696403Y-87362620D01*
X122696401Y-87362627D01*
X122690000Y-87422155D01*
X122690000Y-87720000D01*
X126190000Y-87720000D01*
X126190000Y-87422172D01*
X126189999Y-87422155D01*
X126183598Y-87362627D01*
X126183596Y-87362620D01*
X126133354Y-87227913D01*
X126133350Y-87227906D01*
X126047190Y-87112812D01*
X126047187Y-87112809D01*
X125989438Y-87069578D01*
X125947567Y-87013645D01*
X125942583Y-86943953D01*
X125976069Y-86882630D01*
X125989432Y-86871049D01*
X126047546Y-86827546D01*
X126057944Y-86813657D01*
X126071768Y-86795190D01*
X126127701Y-86753318D01*
X126171035Y-86745500D01*
X126517416Y-86745500D01*
X126584455Y-86765185D01*
X126605097Y-86781819D01*
X126858181Y-87034903D01*
X126891666Y-87096226D01*
X126894500Y-87122584D01*
X126894500Y-87800001D01*
X126894501Y-87800019D01*
X126905000Y-87902796D01*
X126905001Y-87902799D01*
X126936129Y-87996736D01*
X126960186Y-88069334D01*
X127052288Y-88218656D01*
X127176344Y-88342712D01*
X127325666Y-88434814D01*
X127492203Y-88489999D01*
X127594991Y-88500500D01*
X128945008Y-88500499D01*
X129047797Y-88489999D01*
X129214334Y-88434814D01*
X129363656Y-88342712D01*
X129487712Y-88218656D01*
X129579814Y-88069334D01*
X129634999Y-87902797D01*
X129645500Y-87800009D01*
X129645499Y-86899992D01*
X129645270Y-86897753D01*
X129634999Y-86797203D01*
X129634998Y-86797200D01*
X129627169Y-86773573D01*
X129579814Y-86630666D01*
X129487712Y-86481344D01*
X129363656Y-86357288D01*
X129214334Y-86265186D01*
X129047797Y-86210001D01*
X129047795Y-86210000D01*
X128945016Y-86199500D01*
X128945009Y-86199500D01*
X128267584Y-86199500D01*
X128200545Y-86179815D01*
X128179903Y-86163181D01*
X127507217Y-85490495D01*
X127507215Y-85490492D01*
X127376578Y-85359855D01*
X127376576Y-85359853D01*
X127370268Y-85355889D01*
X127342414Y-85338386D01*
X127336741Y-85334361D01*
X127305202Y-85309210D01*
X127305196Y-85309206D01*
X127268846Y-85291701D01*
X127262757Y-85288336D01*
X127228608Y-85266879D01*
X127228607Y-85266878D01*
X127228606Y-85266878D01*
X127209667Y-85260250D01*
X127190533Y-85253555D01*
X127184106Y-85250893D01*
X127147753Y-85233387D01*
X127147751Y-85233386D01*
X127108427Y-85224410D01*
X127101744Y-85222485D01*
X127071141Y-85211777D01*
X127063657Y-85209159D01*
X127063655Y-85209158D01*
X127063653Y-85209158D01*
X127023561Y-85204640D01*
X127016703Y-85203475D01*
X126977383Y-85194500D01*
X126977378Y-85194500D01*
X126933552Y-85194500D01*
X126171035Y-85194500D01*
X126103996Y-85174815D01*
X126071768Y-85144810D01*
X126047550Y-85112458D01*
X126047547Y-85112456D01*
X126047546Y-85112454D01*
X125989854Y-85069265D01*
X125947984Y-85013333D01*
X125943000Y-84943641D01*
X125976485Y-84882318D01*
X125989854Y-84870734D01*
X126047546Y-84827546D01*
X126070537Y-84796835D01*
X126071768Y-84795190D01*
X126127701Y-84753318D01*
X126171035Y-84745500D01*
X131737374Y-84745500D01*
X131737378Y-84745500D01*
X131776717Y-84736520D01*
X131783556Y-84735358D01*
X131823657Y-84730841D01*
X131861739Y-84717514D01*
X131868412Y-84715591D01*
X131907752Y-84706613D01*
X131915711Y-84702779D01*
X131969514Y-84690499D01*
X132755002Y-84690499D01*
X132755008Y-84690499D01*
X132857797Y-84679999D01*
X133024334Y-84624814D01*
X133173656Y-84532712D01*
X133297712Y-84408656D01*
X133389814Y-84259334D01*
X133444999Y-84092797D01*
X133455500Y-83990009D01*
X133455499Y-83089992D01*
X133454871Y-83083848D01*
X133444999Y-82987203D01*
X133444998Y-82987200D01*
X133389814Y-82820666D01*
X133297712Y-82671344D01*
X133173656Y-82547288D01*
X133024334Y-82455186D01*
X132857797Y-82400001D01*
X132857795Y-82400000D01*
X132755010Y-82389500D01*
X131404998Y-82389500D01*
X131404981Y-82389501D01*
X131302203Y-82400000D01*
X131302200Y-82400001D01*
X131135668Y-82455185D01*
X131135663Y-82455187D01*
X130986342Y-82547289D01*
X130862289Y-82671342D01*
X130770187Y-82820663D01*
X130770185Y-82820668D01*
X130742349Y-82904670D01*
X130718744Y-82975909D01*
X130715001Y-82987204D01*
X130715000Y-82987205D01*
X130705204Y-83083102D01*
X130678808Y-83147794D01*
X130621627Y-83187945D01*
X130581846Y-83194500D01*
X126171035Y-83194500D01*
X126103996Y-83174815D01*
X126071768Y-83144810D01*
X126047550Y-83112458D01*
X126047547Y-83112456D01*
X126047546Y-83112454D01*
X125989854Y-83069265D01*
X125947984Y-83013333D01*
X125943000Y-82943641D01*
X125976485Y-82882318D01*
X125989854Y-82870734D01*
X126047546Y-82827546D01*
X126133796Y-82712331D01*
X126184091Y-82577483D01*
X126190500Y-82517873D01*
X126190499Y-81644499D01*
X126210183Y-81577461D01*
X126262987Y-81531706D01*
X126314499Y-81520500D01*
X135090500Y-81520500D01*
X135157539Y-81540185D01*
X135203294Y-81592989D01*
X135214500Y-81644500D01*
X135214500Y-84732722D01*
X135214387Y-84736466D01*
X135210781Y-84796082D01*
X135210781Y-84796085D01*
X135221545Y-84854828D01*
X135222108Y-84858529D01*
X135229311Y-84917845D01*
X135232637Y-84926614D01*
X135238661Y-84948223D01*
X135240350Y-84957440D01*
X135264863Y-85011907D01*
X135266296Y-85015366D01*
X135287481Y-85071224D01*
X135287481Y-85071225D01*
X135292805Y-85078938D01*
X135303824Y-85098476D01*
X135307671Y-85107023D01*
X135307672Y-85107025D01*
X135307673Y-85107026D01*
X135307674Y-85107028D01*
X135337275Y-85144810D01*
X135344515Y-85154051D01*
X135346730Y-85157061D01*
X135380668Y-85206229D01*
X135425392Y-85245851D01*
X135428084Y-85248385D01*
X138669697Y-88489998D01*
X141873181Y-91693482D01*
X141906666Y-91754805D01*
X141909500Y-91781163D01*
X141909500Y-92600001D01*
X141909501Y-92600019D01*
X141920000Y-92702796D01*
X141920001Y-92702799D01*
X141975185Y-92869331D01*
X141975187Y-92869336D01*
X142010069Y-92925888D01*
X142067288Y-93018656D01*
X142191344Y-93142712D01*
X142340666Y-93234814D01*
X142507203Y-93289999D01*
X142609991Y-93300500D01*
X143960008Y-93300499D01*
X144062797Y-93289999D01*
X144229334Y-93234814D01*
X144378656Y-93142712D01*
X144502712Y-93018656D01*
X144502712Y-93018655D01*
X144507819Y-93013549D01*
X144509705Y-93015435D01*
X144556625Y-92982212D01*
X144596868Y-92975500D01*
X149786861Y-92975500D01*
X149853900Y-92995185D01*
X149888436Y-93028377D01*
X149943400Y-93106875D01*
X149943401Y-93106876D01*
X149943402Y-93106877D01*
X150098123Y-93261598D01*
X150277361Y-93387102D01*
X150475670Y-93479575D01*
X150687023Y-93536207D01*
X150869926Y-93552208D01*
X150904998Y-93555277D01*
X150905000Y-93555277D01*
X150905002Y-93555277D01*
X150933254Y-93552805D01*
X151122977Y-93536207D01*
X151334330Y-93479575D01*
X151532639Y-93387102D01*
X151711877Y-93261598D01*
X151866598Y-93106877D01*
X151992102Y-92927639D01*
X152084575Y-92729330D01*
X152141207Y-92517977D01*
X152160277Y-92300000D01*
X152141207Y-92082023D01*
X152084575Y-91870670D01*
X151992102Y-91672362D01*
X151992100Y-91672359D01*
X151992099Y-91672357D01*
X151866599Y-91493124D01*
X151804138Y-91430663D01*
X151711877Y-91338402D01*
X151532639Y-91212898D01*
X151532640Y-91212898D01*
X151532638Y-91212897D01*
X151396941Y-91149621D01*
X151334330Y-91120425D01*
X151334326Y-91120424D01*
X151334322Y-91120422D01*
X151122977Y-91063793D01*
X150905002Y-91044723D01*
X150904998Y-91044723D01*
X150774408Y-91056148D01*
X150687023Y-91063793D01*
X150687020Y-91063793D01*
X150475677Y-91120422D01*
X150475668Y-91120426D01*
X150277361Y-91212898D01*
X150277357Y-91212900D01*
X150098121Y-91338402D01*
X149943403Y-91493120D01*
X149888436Y-91571623D01*
X149833860Y-91615248D01*
X149786861Y-91624500D01*
X144748585Y-91624500D01*
X144681546Y-91604815D01*
X144635791Y-91552011D01*
X144630879Y-91539504D01*
X144629174Y-91534358D01*
X144594814Y-91430666D01*
X144502712Y-91281344D01*
X144378656Y-91157288D01*
X144285888Y-91100069D01*
X144229336Y-91065187D01*
X144229331Y-91065185D01*
X144202059Y-91056148D01*
X144062797Y-91010001D01*
X144062795Y-91010000D01*
X143960016Y-90999500D01*
X143960009Y-90999500D01*
X143141164Y-90999500D01*
X143074125Y-90979815D01*
X143053483Y-90963181D01*
X142500946Y-90410644D01*
X142467461Y-90349321D01*
X142472445Y-90279629D01*
X142514317Y-90223696D01*
X142579781Y-90199279D01*
X142601230Y-90199605D01*
X142609991Y-90200500D01*
X143960008Y-90200499D01*
X144062797Y-90189999D01*
X144229334Y-90134814D01*
X144378656Y-90042712D01*
X144502712Y-89918656D01*
X144594814Y-89769334D01*
X144649999Y-89602797D01*
X144660500Y-89500009D01*
X144660499Y-88900000D01*
X149650225Y-88900000D01*
X149669287Y-89117884D01*
X149669289Y-89117894D01*
X149725894Y-89329150D01*
X149725898Y-89329159D01*
X149818335Y-89527391D01*
X149861873Y-89589571D01*
X149861875Y-89589572D01*
X150507046Y-88944400D01*
X150519835Y-89025148D01*
X150577359Y-89138045D01*
X150666955Y-89227641D01*
X150779852Y-89285165D01*
X150860599Y-89297953D01*
X150215426Y-89943124D01*
X150277611Y-89986666D01*
X150277613Y-89986667D01*
X150475840Y-90079101D01*
X150475849Y-90079105D01*
X150687105Y-90135710D01*
X150687115Y-90135712D01*
X150904999Y-90154775D01*
X150905001Y-90154775D01*
X151122884Y-90135712D01*
X151122894Y-90135710D01*
X151334150Y-90079105D01*
X151334159Y-90079101D01*
X151532387Y-89986666D01*
X151594572Y-89943124D01*
X150949401Y-89297953D01*
X151030148Y-89285165D01*
X151143045Y-89227641D01*
X151232641Y-89138045D01*
X151290165Y-89025148D01*
X151302953Y-88944400D01*
X151948124Y-89589572D01*
X151991666Y-89527387D01*
X152084101Y-89329159D01*
X152084105Y-89329150D01*
X152140710Y-89117894D01*
X152140712Y-89117884D01*
X152159775Y-88900000D01*
X152159775Y-88899999D01*
X152140712Y-88682115D01*
X152140710Y-88682105D01*
X152084105Y-88470849D01*
X152084101Y-88470840D01*
X151991668Y-88272615D01*
X151948123Y-88210428D01*
X151302953Y-88855598D01*
X151290165Y-88774852D01*
X151232641Y-88661955D01*
X151143045Y-88572359D01*
X151030148Y-88514835D01*
X150949400Y-88502046D01*
X151594572Y-87856874D01*
X151594571Y-87856873D01*
X151532391Y-87813335D01*
X151334159Y-87720898D01*
X151334150Y-87720894D01*
X151122894Y-87664289D01*
X151122884Y-87664287D01*
X150905001Y-87645225D01*
X150904999Y-87645225D01*
X150687115Y-87664287D01*
X150687105Y-87664289D01*
X150475849Y-87720894D01*
X150475840Y-87720898D01*
X150277614Y-87813332D01*
X150277612Y-87813333D01*
X150215428Y-87856875D01*
X150215427Y-87856875D01*
X150860599Y-88502046D01*
X150779852Y-88514835D01*
X150666955Y-88572359D01*
X150577359Y-88661955D01*
X150519835Y-88774852D01*
X150507046Y-88855598D01*
X149861875Y-88210427D01*
X149861875Y-88210428D01*
X149818333Y-88272612D01*
X149818332Y-88272614D01*
X149725898Y-88470840D01*
X149725894Y-88470849D01*
X149669289Y-88682105D01*
X149669287Y-88682115D01*
X149650225Y-88899999D01*
X149650225Y-88900000D01*
X144660499Y-88900000D01*
X144660499Y-88822582D01*
X144680183Y-88755544D01*
X144696813Y-88734907D01*
X147529902Y-85901819D01*
X147591226Y-85868334D01*
X147617584Y-85865500D01*
X149947374Y-85865500D01*
X149947378Y-85865500D01*
X149986717Y-85856520D01*
X149993556Y-85855358D01*
X150033657Y-85850841D01*
X150071739Y-85837514D01*
X150078412Y-85835591D01*
X150117752Y-85826613D01*
X150154118Y-85809099D01*
X150160519Y-85806448D01*
X150198606Y-85793122D01*
X150232763Y-85771658D01*
X150238845Y-85768297D01*
X150275202Y-85750790D01*
X150306756Y-85725625D01*
X150312414Y-85721611D01*
X150346576Y-85700147D01*
X150470147Y-85576576D01*
X150470147Y-85576574D01*
X150480355Y-85566367D01*
X150480356Y-85566364D01*
X151709157Y-84337566D01*
X151709157Y-84337565D01*
X151740147Y-84306576D01*
X151761616Y-84272406D01*
X151765629Y-84266750D01*
X151790790Y-84235202D01*
X151808297Y-84198845D01*
X151811661Y-84192759D01*
X151833122Y-84158606D01*
X151846448Y-84120519D01*
X151849099Y-84114118D01*
X151866613Y-84077752D01*
X151875591Y-84038412D01*
X151877514Y-84031741D01*
X151879159Y-84027039D01*
X151890841Y-83993657D01*
X151895358Y-83953556D01*
X151896522Y-83946709D01*
X151905500Y-83907378D01*
X151905500Y-83907374D01*
X151906280Y-83900454D01*
X151908455Y-83900699D01*
X151925185Y-83843725D01*
X151977989Y-83797970D01*
X151986167Y-83794582D01*
X152122328Y-83743797D01*
X152122327Y-83743797D01*
X152122331Y-83743796D01*
X152237546Y-83657546D01*
X152323796Y-83542331D01*
X152374091Y-83407483D01*
X152380500Y-83347873D01*
X152380499Y-82447582D01*
X152400183Y-82380544D01*
X152416813Y-82359907D01*
X155416366Y-79360355D01*
X155416371Y-79360351D01*
X155426574Y-79350147D01*
X155426576Y-79350147D01*
X155522818Y-79253904D01*
X155584142Y-79220419D01*
X155653834Y-79225403D01*
G37*
%TD.AperFunction*%
%TA.AperFunction,Conductor*%
G36*
X87970455Y-48530185D02*
G01*
X88016210Y-48582989D01*
X88026154Y-48652147D01*
X87997129Y-48715703D01*
X87991097Y-48722181D01*
X85282658Y-51430618D01*
X85221335Y-51464103D01*
X85151645Y-51459119D01*
X85035043Y-51415630D01*
X84755433Y-51354804D01*
X84470001Y-51334390D01*
X84469999Y-51334390D01*
X84184566Y-51354804D01*
X83904962Y-51415628D01*
X83636833Y-51515635D01*
X83385690Y-51652770D01*
X83385682Y-51652775D01*
X83156612Y-51824254D01*
X83156594Y-51824270D01*
X82954270Y-52026594D01*
X82954254Y-52026612D01*
X82782775Y-52255682D01*
X82782770Y-52255690D01*
X82645635Y-52506833D01*
X82545628Y-52774962D01*
X82484804Y-53054566D01*
X82464390Y-53339998D01*
X82464390Y-53340001D01*
X82484804Y-53625433D01*
X82545628Y-53905037D01*
X82545630Y-53905043D01*
X82545631Y-53905046D01*
X82625493Y-54119164D01*
X82645635Y-54173166D01*
X82782770Y-54424309D01*
X82782775Y-54424317D01*
X82954254Y-54653387D01*
X82954270Y-54653405D01*
X83156594Y-54855729D01*
X83156612Y-54855745D01*
X83385682Y-55027224D01*
X83385690Y-55027229D01*
X83636833Y-55164364D01*
X83636832Y-55164364D01*
X83636836Y-55164365D01*
X83636839Y-55164367D01*
X83904954Y-55264369D01*
X83904960Y-55264370D01*
X83904962Y-55264371D01*
X84184566Y-55325195D01*
X84184568Y-55325195D01*
X84184572Y-55325196D01*
X84438220Y-55343337D01*
X84469999Y-55345610D01*
X84470000Y-55345610D01*
X84470001Y-55345610D01*
X84498595Y-55343564D01*
X84755428Y-55325196D01*
X85009837Y-55269853D01*
X85035037Y-55264371D01*
X85035037Y-55264370D01*
X85035046Y-55264369D01*
X85303161Y-55164367D01*
X85554315Y-55027226D01*
X85783395Y-54855739D01*
X85985739Y-54653395D01*
X85986271Y-54652685D01*
X85999288Y-54635295D01*
X86152966Y-54430004D01*
X86208898Y-54388134D01*
X86278590Y-54383150D01*
X86339910Y-54416632D01*
X86339913Y-54416635D01*
X86818181Y-54894903D01*
X86851666Y-54956226D01*
X86854500Y-54982584D01*
X86854500Y-57782383D01*
X86863475Y-57821703D01*
X86864640Y-57828561D01*
X86869158Y-57868653D01*
X86869160Y-57868659D01*
X86882485Y-57906744D01*
X86884410Y-57913427D01*
X86893386Y-57952751D01*
X86893387Y-57952753D01*
X86910893Y-57989106D01*
X86913555Y-57995533D01*
X86926879Y-58033608D01*
X86948336Y-58067757D01*
X86951701Y-58073846D01*
X86969206Y-58110196D01*
X86969210Y-58110202D01*
X86994361Y-58141741D01*
X86998386Y-58147414D01*
X87019852Y-58181574D01*
X87019855Y-58181578D01*
X87150489Y-58312212D01*
X87150495Y-58312217D01*
X90343181Y-61504904D01*
X90376666Y-61566227D01*
X90379500Y-61592585D01*
X90379500Y-62492870D01*
X90379501Y-62492876D01*
X90385908Y-62552483D01*
X90436202Y-62687328D01*
X90436206Y-62687335D01*
X90522452Y-62802544D01*
X90522455Y-62802547D01*
X90637664Y-62888793D01*
X90637671Y-62888797D01*
X90772517Y-62939091D01*
X90772516Y-62939091D01*
X90779444Y-62939835D01*
X90832127Y-62945500D01*
X92927872Y-62945499D01*
X92987483Y-62939091D01*
X93122331Y-62888796D01*
X93237546Y-62802546D01*
X93323796Y-62687331D01*
X93374091Y-62552483D01*
X93380500Y-62492873D01*
X93380499Y-60897128D01*
X93374627Y-60842499D01*
X93374091Y-60837516D01*
X93323797Y-60702671D01*
X93323795Y-60702668D01*
X93261394Y-60619310D01*
X93236977Y-60553845D01*
X93251829Y-60485572D01*
X93261390Y-60470693D01*
X93323796Y-60387331D01*
X93374091Y-60252483D01*
X93380500Y-60192873D01*
X93380499Y-58597128D01*
X93374091Y-58537517D01*
X93370168Y-58527000D01*
X93323797Y-58402671D01*
X93323795Y-58402668D01*
X93303464Y-58375509D01*
X93261081Y-58318893D01*
X93236664Y-58253431D01*
X93251515Y-58185158D01*
X93261082Y-58170271D01*
X93323352Y-58087089D01*
X93323354Y-58087086D01*
X93373596Y-57952379D01*
X93373598Y-57952372D01*
X93379999Y-57892844D01*
X93380000Y-57892827D01*
X93380000Y-57345000D01*
X90379999Y-57345000D01*
X90373541Y-57351458D01*
X90312218Y-57384943D01*
X90242526Y-57379957D01*
X90198180Y-57351457D01*
X89711819Y-56865096D01*
X89700846Y-56845000D01*
X90380000Y-56845000D01*
X91630000Y-56845000D01*
X91630000Y-55845000D01*
X92130000Y-55845000D01*
X92130000Y-56845000D01*
X93380000Y-56845000D01*
X93380000Y-56815000D01*
X101470001Y-56815000D01*
X101470001Y-57027486D01*
X101480494Y-57130197D01*
X101535641Y-57296619D01*
X101535643Y-57296624D01*
X101627684Y-57445845D01*
X101751654Y-57569815D01*
X101900875Y-57661856D01*
X101900880Y-57661858D01*
X102067302Y-57717005D01*
X102067309Y-57717006D01*
X102170019Y-57727499D01*
X102619999Y-57727499D01*
X102620000Y-57727498D01*
X102620000Y-56815000D01*
X103120000Y-56815000D01*
X103120000Y-57727499D01*
X103569972Y-57727499D01*
X103569986Y-57727498D01*
X103672697Y-57717005D01*
X103839119Y-57661858D01*
X103839124Y-57661856D01*
X103988345Y-57569815D01*
X104112315Y-57445845D01*
X104204356Y-57296624D01*
X104204358Y-57296619D01*
X104259505Y-57130197D01*
X104259506Y-57130190D01*
X104269999Y-57027486D01*
X104270000Y-57027473D01*
X104270000Y-56815000D01*
X103120000Y-56815000D01*
X102620000Y-56815000D01*
X101470001Y-56815000D01*
X93380000Y-56815000D01*
X93380000Y-56315000D01*
X101470000Y-56315000D01*
X102620000Y-56315000D01*
X102620000Y-55402500D01*
X103120000Y-55402500D01*
X103120000Y-56315000D01*
X104269999Y-56315000D01*
X104269999Y-56102528D01*
X104269998Y-56102513D01*
X104259505Y-55999802D01*
X104204358Y-55833380D01*
X104204356Y-55833375D01*
X104112315Y-55684154D01*
X103988345Y-55560184D01*
X103839124Y-55468143D01*
X103839119Y-55468141D01*
X103672697Y-55412994D01*
X103672690Y-55412993D01*
X103569986Y-55402500D01*
X103120000Y-55402500D01*
X102620000Y-55402500D01*
X102170028Y-55402500D01*
X102170012Y-55402501D01*
X102067302Y-55412994D01*
X101900880Y-55468141D01*
X101900875Y-55468143D01*
X101751654Y-55560184D01*
X101627684Y-55684154D01*
X101535643Y-55833375D01*
X101535641Y-55833380D01*
X101480494Y-55999802D01*
X101480493Y-55999809D01*
X101470000Y-56102513D01*
X101470000Y-56315000D01*
X93380000Y-56315000D01*
X93380000Y-56297172D01*
X93379999Y-56297155D01*
X93373598Y-56237627D01*
X93373596Y-56237620D01*
X93323354Y-56102913D01*
X93323350Y-56102906D01*
X93237190Y-55987812D01*
X93237187Y-55987809D01*
X93122093Y-55901649D01*
X93122086Y-55901645D01*
X92987379Y-55851403D01*
X92987372Y-55851401D01*
X92927844Y-55845000D01*
X92130000Y-55845000D01*
X91630000Y-55845000D01*
X90832155Y-55845000D01*
X90772627Y-55851401D01*
X90772620Y-55851403D01*
X90637913Y-55901645D01*
X90637906Y-55901649D01*
X90522812Y-55987809D01*
X90522809Y-55987812D01*
X90436649Y-56102906D01*
X90436645Y-56102913D01*
X90386403Y-56237620D01*
X90386401Y-56237627D01*
X90380000Y-56297155D01*
X90380000Y-56845000D01*
X89700846Y-56845000D01*
X89678334Y-56803773D01*
X89675500Y-56777415D01*
X89675500Y-54982583D01*
X89695185Y-54915544D01*
X89711819Y-54894902D01*
X89937403Y-54669319D01*
X89998726Y-54635834D01*
X90025084Y-54633000D01*
X90299699Y-54633000D01*
X90366738Y-54652685D01*
X90412493Y-54705489D01*
X90417405Y-54717996D01*
X90445185Y-54801831D01*
X90445187Y-54801836D01*
X90478435Y-54855739D01*
X90537288Y-54951156D01*
X90661344Y-55075212D01*
X90810666Y-55167314D01*
X90977203Y-55222499D01*
X91079991Y-55233000D01*
X91980008Y-55232999D01*
X91980016Y-55232998D01*
X91980019Y-55232998D01*
X92036302Y-55227248D01*
X92082797Y-55222499D01*
X92249334Y-55167314D01*
X92398656Y-55075212D01*
X92522712Y-54951156D01*
X92614814Y-54801834D01*
X92669999Y-54635297D01*
X92680500Y-54532509D01*
X92680499Y-53182492D01*
X92679819Y-53175840D01*
X92669999Y-53079703D01*
X92669998Y-53079700D01*
X92661631Y-53054449D01*
X92614814Y-52913166D01*
X92522712Y-52763844D01*
X92398656Y-52639788D01*
X92398655Y-52639787D01*
X92364401Y-52618659D01*
X92317677Y-52566711D01*
X92305500Y-52513125D01*
X92305500Y-52144373D01*
X92325184Y-52077338D01*
X92364402Y-52038839D01*
X92398656Y-52017712D01*
X92522712Y-51893656D01*
X92614814Y-51744334D01*
X92669999Y-51577797D01*
X92680500Y-51475009D01*
X92680499Y-50124992D01*
X92680429Y-50124311D01*
X92669999Y-50022203D01*
X92669998Y-50022200D01*
X92653568Y-49972619D01*
X92614814Y-49855666D01*
X92549389Y-49749595D01*
X92530950Y-49682204D01*
X92551873Y-49615541D01*
X92605515Y-49570771D01*
X92654929Y-49560500D01*
X93505071Y-49560500D01*
X93572110Y-49580185D01*
X93617865Y-49632989D01*
X93627809Y-49702147D01*
X93610610Y-49749595D01*
X93596680Y-49772181D01*
X93545187Y-49855663D01*
X93545185Y-49855668D01*
X93521737Y-49926429D01*
X93490001Y-50022203D01*
X93490001Y-50022204D01*
X93490000Y-50022204D01*
X93479500Y-50124983D01*
X93479500Y-51475001D01*
X93479501Y-51475018D01*
X93490000Y-51577796D01*
X93490001Y-51577799D01*
X93545185Y-51744331D01*
X93545186Y-51744334D01*
X93637288Y-51893656D01*
X93761344Y-52017712D01*
X93910666Y-52109814D01*
X94077203Y-52164999D01*
X94179991Y-52175500D01*
X95080008Y-52175499D01*
X95080016Y-52175498D01*
X95080019Y-52175498D01*
X95136302Y-52169748D01*
X95182797Y-52164999D01*
X95349334Y-52109814D01*
X95498656Y-52017712D01*
X95622712Y-51893656D01*
X95714814Y-51744334D01*
X95742595Y-51660495D01*
X95782368Y-51603051D01*
X95846884Y-51576228D01*
X95860301Y-51575500D01*
X103767416Y-51575500D01*
X103834455Y-51595185D01*
X103855097Y-51611819D01*
X105298342Y-53055064D01*
X105331827Y-53116386D01*
X105326843Y-53186078D01*
X105284971Y-53242011D01*
X105219507Y-53266428D01*
X105151234Y-53251576D01*
X105144687Y-53247737D01*
X105109915Y-53225887D01*
X105104242Y-53221862D01*
X105092768Y-53212712D01*
X105072702Y-53196710D01*
X105072699Y-53196708D01*
X105072696Y-53196706D01*
X105036346Y-53179201D01*
X105030257Y-53175836D01*
X104996108Y-53154379D01*
X104996107Y-53154378D01*
X104996106Y-53154378D01*
X104977167Y-53147750D01*
X104958033Y-53141055D01*
X104951606Y-53138393D01*
X104915253Y-53120887D01*
X104915251Y-53120886D01*
X104875927Y-53111910D01*
X104869244Y-53109985D01*
X104838641Y-53099277D01*
X104831157Y-53096659D01*
X104831155Y-53096658D01*
X104831153Y-53096658D01*
X104791061Y-53092140D01*
X104784203Y-53090975D01*
X104744883Y-53082000D01*
X104744878Y-53082000D01*
X104701052Y-53082000D01*
X95860301Y-53082000D01*
X95793262Y-53062315D01*
X95747507Y-53009511D01*
X95742595Y-52997004D01*
X95714814Y-52913166D01*
X95622712Y-52763844D01*
X95498656Y-52639788D01*
X95349334Y-52547686D01*
X95182797Y-52492501D01*
X95182795Y-52492500D01*
X95080010Y-52482000D01*
X94179998Y-52482000D01*
X94179980Y-52482001D01*
X94077203Y-52492500D01*
X94077200Y-52492501D01*
X93910668Y-52547685D01*
X93910663Y-52547687D01*
X93761342Y-52639789D01*
X93637289Y-52763842D01*
X93545187Y-52913163D01*
X93545185Y-52913168D01*
X93524969Y-52974176D01*
X93490001Y-53079703D01*
X93490001Y-53079704D01*
X93490000Y-53079704D01*
X93479500Y-53182483D01*
X93479500Y-54532501D01*
X93479501Y-54532518D01*
X93490000Y-54635296D01*
X93490001Y-54635299D01*
X93545185Y-54801831D01*
X93545187Y-54801836D01*
X93578435Y-54855739D01*
X93637288Y-54951156D01*
X93761344Y-55075212D01*
X93910666Y-55167314D01*
X94077203Y-55222499D01*
X94179991Y-55233000D01*
X95080008Y-55232999D01*
X95080016Y-55232998D01*
X95080019Y-55232998D01*
X95136302Y-55227248D01*
X95182797Y-55222499D01*
X95349334Y-55167314D01*
X95498656Y-55075212D01*
X95622712Y-54951156D01*
X95714814Y-54801834D01*
X95742595Y-54717995D01*
X95782368Y-54660551D01*
X95846884Y-54633728D01*
X95860301Y-54633000D01*
X104284916Y-54633000D01*
X104351955Y-54652685D01*
X104372597Y-54669319D01*
X106388181Y-56684903D01*
X106421666Y-56746226D01*
X106424500Y-56772584D01*
X106424500Y-62256652D01*
X106404815Y-62323691D01*
X106388181Y-62344333D01*
X104923426Y-63809089D01*
X104923424Y-63809091D01*
X104799852Y-63932662D01*
X104785848Y-63954948D01*
X104778389Y-63966819D01*
X104774369Y-63972486D01*
X104749210Y-64004034D01*
X104731704Y-64040385D01*
X104728340Y-64046471D01*
X104706879Y-64080630D01*
X104706876Y-64080636D01*
X104693552Y-64118712D01*
X104690891Y-64125136D01*
X104673387Y-64161484D01*
X104664409Y-64200814D01*
X104662484Y-64207497D01*
X104649159Y-64245576D01*
X104644640Y-64285676D01*
X104643475Y-64292533D01*
X104634501Y-64331852D01*
X104634500Y-64331862D01*
X104634500Y-70747415D01*
X104614815Y-70814454D01*
X104598181Y-70835096D01*
X103653424Y-71779853D01*
X103529852Y-71903424D01*
X103515848Y-71925710D01*
X103508389Y-71937581D01*
X103504369Y-71943248D01*
X103479210Y-71974796D01*
X103461704Y-72011147D01*
X103458340Y-72017233D01*
X103436879Y-72051392D01*
X103436876Y-72051398D01*
X103423552Y-72089474D01*
X103420891Y-72095898D01*
X103403387Y-72132246D01*
X103394409Y-72171576D01*
X103392484Y-72178259D01*
X103379159Y-72216338D01*
X103374640Y-72256438D01*
X103373475Y-72263295D01*
X103364501Y-72302614D01*
X103364499Y-72302624D01*
X103364499Y-76287376D01*
X103364500Y-76287383D01*
X103373475Y-76326703D01*
X103374640Y-76333561D01*
X103379158Y-76373653D01*
X103379160Y-76373659D01*
X103392485Y-76411744D01*
X103394410Y-76418427D01*
X103403386Y-76457751D01*
X103403387Y-76457753D01*
X103420893Y-76494106D01*
X103423555Y-76500533D01*
X103433707Y-76529544D01*
X103437270Y-76599323D01*
X103402542Y-76659950D01*
X103340549Y-76692178D01*
X103316666Y-76694500D01*
X100702584Y-76694500D01*
X100635545Y-76674815D01*
X100614903Y-76658181D01*
X98114717Y-74157995D01*
X98114715Y-74157992D01*
X97984078Y-74027355D01*
X97984076Y-74027353D01*
X97977768Y-74023389D01*
X97949914Y-74005886D01*
X97944241Y-74001861D01*
X97912702Y-73976710D01*
X97912696Y-73976706D01*
X97876346Y-73959201D01*
X97870257Y-73955836D01*
X97836108Y-73934379D01*
X97836107Y-73934378D01*
X97836106Y-73934378D01*
X97817167Y-73927750D01*
X97798033Y-73921055D01*
X97791606Y-73918393D01*
X97755253Y-73900887D01*
X97755251Y-73900886D01*
X97715927Y-73891910D01*
X97709244Y-73889985D01*
X97678641Y-73879277D01*
X97671157Y-73876659D01*
X97671155Y-73876658D01*
X97671153Y-73876658D01*
X97631061Y-73872140D01*
X97624203Y-73870975D01*
X97584883Y-73862000D01*
X97584878Y-73862000D01*
X97541052Y-73862000D01*
X92797088Y-73862000D01*
X92730049Y-73842315D01*
X92691549Y-73803097D01*
X92691192Y-73802518D01*
X92662712Y-73756344D01*
X92538656Y-73632288D01*
X92389334Y-73540186D01*
X92222797Y-73485001D01*
X92222795Y-73485000D01*
X92120016Y-73474500D01*
X92120009Y-73474500D01*
X91405084Y-73474500D01*
X91338045Y-73454815D01*
X91317403Y-73438181D01*
X90699717Y-72820495D01*
X90699715Y-72820492D01*
X90569078Y-72689855D01*
X90569076Y-72689853D01*
X90562768Y-72685889D01*
X90534914Y-72668386D01*
X90529241Y-72664361D01*
X90497702Y-72639210D01*
X90497696Y-72639206D01*
X90461346Y-72621701D01*
X90455257Y-72618336D01*
X90421108Y-72596879D01*
X90421107Y-72596878D01*
X90421106Y-72596878D01*
X90402167Y-72590250D01*
X90383033Y-72583555D01*
X90376606Y-72580893D01*
X90340253Y-72563387D01*
X90340251Y-72563386D01*
X90300927Y-72554410D01*
X90294244Y-72552485D01*
X90263641Y-72541777D01*
X90256157Y-72539159D01*
X90256155Y-72539158D01*
X90256153Y-72539158D01*
X90216061Y-72534640D01*
X90209203Y-72533475D01*
X90169883Y-72524500D01*
X90169878Y-72524500D01*
X90126052Y-72524500D01*
X86944499Y-72524500D01*
X86877460Y-72504815D01*
X86831705Y-72452011D01*
X86820499Y-72400500D01*
X86820499Y-71852129D01*
X86820498Y-71852123D01*
X86820497Y-71852116D01*
X86814091Y-71792517D01*
X86802721Y-71762033D01*
X86763797Y-71657671D01*
X86763793Y-71657664D01*
X86677547Y-71542455D01*
X86677544Y-71542452D01*
X86562335Y-71456206D01*
X86562328Y-71456202D01*
X86427482Y-71405908D01*
X86427483Y-71405908D01*
X86367883Y-71399501D01*
X86367881Y-71399500D01*
X86367873Y-71399500D01*
X86367864Y-71399500D01*
X85272129Y-71399500D01*
X85272123Y-71399501D01*
X85212516Y-71405908D01*
X85077671Y-71456202D01*
X85077664Y-71456206D01*
X84962455Y-71542452D01*
X84962452Y-71542455D01*
X84876206Y-71657664D01*
X84876202Y-71657671D01*
X84825908Y-71792517D01*
X84823806Y-71812073D01*
X84819501Y-71852123D01*
X84819500Y-71852135D01*
X84819500Y-74747870D01*
X84819501Y-74747876D01*
X84825908Y-74807483D01*
X84876202Y-74942328D01*
X84876203Y-74942329D01*
X84876204Y-74942331D01*
X84962452Y-75057543D01*
X84962451Y-75057543D01*
X84962452Y-75057544D01*
X84962454Y-75057546D01*
X84994812Y-75081769D01*
X85036681Y-75137700D01*
X85044500Y-75181034D01*
X85044500Y-77218964D01*
X85024815Y-77286003D01*
X84994812Y-77318230D01*
X84962457Y-77342450D01*
X84962451Y-77342457D01*
X84876206Y-77457664D01*
X84876202Y-77457671D01*
X84825908Y-77592517D01*
X84819501Y-77652116D01*
X84819501Y-77652123D01*
X84819500Y-77652135D01*
X84819500Y-80547870D01*
X84819501Y-80547876D01*
X84825908Y-80607483D01*
X84876202Y-80742328D01*
X84876206Y-80742335D01*
X84962452Y-80857544D01*
X84962455Y-80857547D01*
X85077664Y-80943793D01*
X85077671Y-80943797D01*
X85212517Y-80994091D01*
X85212516Y-80994091D01*
X85219444Y-80994835D01*
X85272127Y-81000500D01*
X86367872Y-81000499D01*
X86427483Y-80994091D01*
X86562331Y-80943796D01*
X86677546Y-80857546D01*
X86763796Y-80742331D01*
X86814091Y-80607483D01*
X86820500Y-80547873D01*
X86820499Y-78012500D01*
X90020001Y-78012500D01*
X90020001Y-78224986D01*
X90030494Y-78327697D01*
X90085641Y-78494119D01*
X90085643Y-78494124D01*
X90177684Y-78643345D01*
X90301654Y-78767315D01*
X90450875Y-78859356D01*
X90450880Y-78859358D01*
X90617302Y-78914505D01*
X90617309Y-78914506D01*
X90720019Y-78924999D01*
X91169999Y-78924999D01*
X91170000Y-78924998D01*
X91170000Y-78012500D01*
X91670000Y-78012500D01*
X91670000Y-78924999D01*
X92119972Y-78924999D01*
X92119986Y-78924998D01*
X92222697Y-78914505D01*
X92389119Y-78859358D01*
X92389124Y-78859356D01*
X92538345Y-78767315D01*
X92662315Y-78643345D01*
X92754356Y-78494124D01*
X92754358Y-78494119D01*
X92809505Y-78327697D01*
X92809506Y-78327690D01*
X92819999Y-78224986D01*
X92820000Y-78224973D01*
X92820000Y-78012500D01*
X91670000Y-78012500D01*
X91170000Y-78012500D01*
X90020001Y-78012500D01*
X86820499Y-78012500D01*
X86820499Y-77652128D01*
X86814091Y-77592517D01*
X86809146Y-77579260D01*
X86784247Y-77512500D01*
X90020000Y-77512500D01*
X91170000Y-77512500D01*
X91170000Y-76600000D01*
X91670000Y-76600000D01*
X91670000Y-77512500D01*
X92819999Y-77512500D01*
X92819999Y-77300028D01*
X92819998Y-77300013D01*
X92809505Y-77197302D01*
X92754358Y-77030880D01*
X92754356Y-77030875D01*
X92662315Y-76881654D01*
X92538345Y-76757684D01*
X92389124Y-76665643D01*
X92389119Y-76665641D01*
X92222697Y-76610494D01*
X92222690Y-76610493D01*
X92119986Y-76600000D01*
X91670000Y-76600000D01*
X91170000Y-76600000D01*
X90720028Y-76600000D01*
X90720012Y-76600001D01*
X90617302Y-76610494D01*
X90450880Y-76665641D01*
X90450875Y-76665643D01*
X90301654Y-76757684D01*
X90177684Y-76881654D01*
X90085643Y-77030875D01*
X90085641Y-77030880D01*
X90030494Y-77197302D01*
X90030493Y-77197309D01*
X90020000Y-77300013D01*
X90020000Y-77512500D01*
X86784247Y-77512500D01*
X86763797Y-77457671D01*
X86763793Y-77457664D01*
X86677548Y-77342457D01*
X86677546Y-77342454D01*
X86677544Y-77342452D01*
X86677542Y-77342450D01*
X86645188Y-77318230D01*
X86603318Y-77262296D01*
X86595500Y-77218964D01*
X86595500Y-75181034D01*
X86615185Y-75113995D01*
X86645185Y-75081770D01*
X86677546Y-75057546D01*
X86763796Y-74942331D01*
X86814091Y-74807483D01*
X86820500Y-74747873D01*
X86820500Y-74199499D01*
X86840185Y-74132461D01*
X86892989Y-74086706D01*
X86944500Y-74075500D01*
X89709916Y-74075500D01*
X89776955Y-74095185D01*
X89797597Y-74111819D01*
X89983181Y-74297403D01*
X90016666Y-74358726D01*
X90019500Y-74385084D01*
X90019500Y-75100001D01*
X90019501Y-75100019D01*
X90030000Y-75202796D01*
X90030001Y-75202799D01*
X90077552Y-75346296D01*
X90085186Y-75369334D01*
X90177288Y-75518656D01*
X90301344Y-75642712D01*
X90450666Y-75734814D01*
X90617203Y-75789999D01*
X90719991Y-75800500D01*
X92120008Y-75800499D01*
X92222797Y-75789999D01*
X92389334Y-75734814D01*
X92538656Y-75642712D01*
X92662712Y-75518656D01*
X92691549Y-75471902D01*
X92743497Y-75425179D01*
X92797088Y-75413000D01*
X97124916Y-75413000D01*
X97191955Y-75432685D01*
X97212597Y-75449319D01*
X99717510Y-77954232D01*
X99717520Y-77954243D01*
X99719852Y-77956575D01*
X99719853Y-77956576D01*
X99843424Y-78080147D01*
X99877585Y-78101612D01*
X99883254Y-78105635D01*
X99914798Y-78130790D01*
X99951155Y-78148298D01*
X99957235Y-78151658D01*
X99991394Y-78173122D01*
X100029470Y-78186445D01*
X100035896Y-78189107D01*
X100072248Y-78206613D01*
X100111591Y-78215592D01*
X100118255Y-78217512D01*
X100156343Y-78230841D01*
X100196433Y-78235357D01*
X100203291Y-78236523D01*
X100223040Y-78241030D01*
X100242622Y-78245500D01*
X100286448Y-78245500D01*
X103767416Y-78245500D01*
X103834455Y-78265185D01*
X103855096Y-78281818D01*
X106069852Y-80496575D01*
X106069853Y-80496576D01*
X106193424Y-80620147D01*
X106227590Y-80641615D01*
X106233243Y-80645626D01*
X106264798Y-80670790D01*
X106301155Y-80688298D01*
X106307221Y-80691649D01*
X106341394Y-80713122D01*
X106379470Y-80726445D01*
X106385896Y-80729107D01*
X106422248Y-80746613D01*
X106461591Y-80755592D01*
X106468255Y-80757512D01*
X106506343Y-80770841D01*
X106546433Y-80775357D01*
X106553291Y-80776523D01*
X106573040Y-80781030D01*
X106592622Y-80785500D01*
X106636448Y-80785500D01*
X107539045Y-80785500D01*
X107606084Y-80805185D01*
X107626723Y-80821815D01*
X107632454Y-80827546D01*
X107690145Y-80870734D01*
X107732015Y-80926668D01*
X107736999Y-80996360D01*
X107703513Y-81057683D01*
X107690145Y-81069266D01*
X107632452Y-81112455D01*
X107546206Y-81227664D01*
X107546202Y-81227671D01*
X107495908Y-81362517D01*
X107489501Y-81422116D01*
X107489500Y-81422135D01*
X107489500Y-82517870D01*
X107489501Y-82517876D01*
X107495908Y-82577483D01*
X107546202Y-82712328D01*
X107546206Y-82712335D01*
X107632452Y-82827544D01*
X107632453Y-82827544D01*
X107632454Y-82827546D01*
X107661615Y-82849376D01*
X107690145Y-82870734D01*
X107732015Y-82926668D01*
X107736999Y-82996360D01*
X107703513Y-83057683D01*
X107690145Y-83069266D01*
X107632452Y-83112455D01*
X107546206Y-83227664D01*
X107546202Y-83227671D01*
X107495908Y-83362516D01*
X107493196Y-83387748D01*
X107466458Y-83452299D01*
X107409065Y-83492147D01*
X107339240Y-83494640D01*
X107287681Y-83467308D01*
X107244624Y-83429163D01*
X107241912Y-83426611D01*
X105903385Y-82088084D01*
X105900851Y-82085392D01*
X105861229Y-82040668D01*
X105812061Y-82006730D01*
X105809051Y-82004515D01*
X105762025Y-81967672D01*
X105762023Y-81967671D01*
X105753476Y-81963824D01*
X105733938Y-81952805D01*
X105726226Y-81947482D01*
X105726224Y-81947481D01*
X105670366Y-81926296D01*
X105666907Y-81924863D01*
X105612440Y-81900350D01*
X105612441Y-81900350D01*
X105605087Y-81899002D01*
X105603222Y-81898660D01*
X105581614Y-81892637D01*
X105572845Y-81889311D01*
X105513529Y-81882108D01*
X105509828Y-81881545D01*
X105451089Y-81870781D01*
X105451082Y-81870781D01*
X105391466Y-81874387D01*
X105387722Y-81874500D01*
X104294000Y-81874500D01*
X104226961Y-81854815D01*
X104181206Y-81802011D01*
X104170000Y-81750500D01*
X104170000Y-81000000D01*
X101570001Y-81000000D01*
X101570001Y-81763326D01*
X101550316Y-81830365D01*
X101497512Y-81876120D01*
X101460951Y-81886421D01*
X101437160Y-81889310D01*
X101437159Y-81889310D01*
X101428381Y-81892639D01*
X101406778Y-81898660D01*
X101402259Y-81899488D01*
X101397560Y-81900350D01*
X101343075Y-81924869D01*
X101339618Y-81926301D01*
X101283774Y-81947481D01*
X101283770Y-81947484D01*
X101276056Y-81952808D01*
X101256525Y-81963824D01*
X101247971Y-81967674D01*
X101247970Y-81967674D01*
X101200932Y-82004525D01*
X101197917Y-82006744D01*
X101148771Y-82040667D01*
X101148769Y-82040669D01*
X101109172Y-82085364D01*
X101106605Y-82088091D01*
X99868100Y-83326597D01*
X99865373Y-83329164D01*
X99820670Y-83368769D01*
X99820667Y-83368772D01*
X99786736Y-83417928D01*
X99784517Y-83420943D01*
X99747674Y-83467970D01*
X99743824Y-83476525D01*
X99732808Y-83496056D01*
X99727484Y-83503770D01*
X99727481Y-83503774D01*
X99706301Y-83559618D01*
X99704869Y-83563075D01*
X99680350Y-83617560D01*
X99678661Y-83626777D01*
X99672639Y-83648381D01*
X99669311Y-83657156D01*
X99662108Y-83716470D01*
X99661545Y-83720171D01*
X99650781Y-83778909D01*
X99650781Y-83778915D01*
X99654387Y-83838533D01*
X99654500Y-83842277D01*
X99654500Y-85748836D01*
X99634815Y-85815875D01*
X99618181Y-85836517D01*
X96751516Y-88703181D01*
X96690193Y-88736666D01*
X96663835Y-88739500D01*
X95844998Y-88739500D01*
X95844980Y-88739501D01*
X95742203Y-88750000D01*
X95742200Y-88750001D01*
X95575668Y-88805185D01*
X95575663Y-88805187D01*
X95426342Y-88897289D01*
X95302289Y-89021342D01*
X95219481Y-89155597D01*
X95167533Y-89202321D01*
X95113942Y-89214500D01*
X94554778Y-89214500D01*
X94551034Y-89214387D01*
X94491418Y-89210781D01*
X94491409Y-89210781D01*
X94432671Y-89221545D01*
X94428970Y-89222108D01*
X94369656Y-89229311D01*
X94360881Y-89232639D01*
X94339278Y-89238660D01*
X94334759Y-89239488D01*
X94330060Y-89240350D01*
X94275575Y-89264869D01*
X94272118Y-89266301D01*
X94216274Y-89287481D01*
X94216270Y-89287484D01*
X94208556Y-89292808D01*
X94189025Y-89303824D01*
X94180470Y-89307674D01*
X94133443Y-89344517D01*
X94130428Y-89346736D01*
X94081272Y-89380667D01*
X94081269Y-89380670D01*
X94041664Y-89425373D01*
X94039097Y-89428100D01*
X93031428Y-90435769D01*
X92970105Y-90469254D01*
X92900413Y-90464270D01*
X92844480Y-90422398D01*
X92820063Y-90356934D01*
X92819909Y-90341761D01*
X92820000Y-90339979D01*
X92820000Y-90127500D01*
X91670000Y-90127500D01*
X91670000Y-91039999D01*
X92119964Y-91039999D01*
X92121766Y-91039907D01*
X92122151Y-91039999D01*
X92123134Y-91039999D01*
X92123134Y-91040233D01*
X92189722Y-91056148D01*
X92238110Y-91106550D01*
X92251567Y-91175111D01*
X92225821Y-91240064D01*
X92215770Y-91251427D01*
X91664017Y-91803181D01*
X91602694Y-91836666D01*
X91576336Y-91839500D01*
X91263663Y-91839500D01*
X91196624Y-91819815D01*
X91175982Y-91803181D01*
X90624229Y-91251428D01*
X90590744Y-91190105D01*
X90595728Y-91120413D01*
X90637600Y-91064480D01*
X90703064Y-91040063D01*
X90718234Y-91039908D01*
X90720035Y-91039999D01*
X91169999Y-91039999D01*
X91170000Y-91039998D01*
X91170000Y-90127500D01*
X90020001Y-90127500D01*
X90020001Y-90339983D01*
X90020093Y-90341793D01*
X90020001Y-90342177D01*
X90020001Y-90343134D01*
X90019772Y-90343134D01*
X90003838Y-90409746D01*
X89953426Y-90458123D01*
X89884862Y-90471566D01*
X89819914Y-90445806D01*
X89808572Y-90435771D01*
X89000301Y-89627500D01*
X90020000Y-89627500D01*
X91170000Y-89627500D01*
X91170000Y-88715000D01*
X91670000Y-88715000D01*
X91670000Y-89627500D01*
X92819999Y-89627500D01*
X92819999Y-89415028D01*
X92819998Y-89415013D01*
X92809505Y-89312302D01*
X92754358Y-89145880D01*
X92754356Y-89145875D01*
X92662315Y-88996654D01*
X92538345Y-88872684D01*
X92389124Y-88780643D01*
X92389119Y-88780641D01*
X92222697Y-88725494D01*
X92222690Y-88725493D01*
X92119986Y-88715000D01*
X91670000Y-88715000D01*
X91170000Y-88715000D01*
X90720028Y-88715000D01*
X90720012Y-88715001D01*
X90617302Y-88725494D01*
X90450880Y-88780641D01*
X90450875Y-88780643D01*
X90301654Y-88872684D01*
X90177684Y-88996654D01*
X90085643Y-89145875D01*
X90085641Y-89145880D01*
X90030494Y-89312302D01*
X90030493Y-89312309D01*
X90020000Y-89415013D01*
X90020000Y-89627500D01*
X89000301Y-89627500D01*
X88637670Y-89264869D01*
X87450885Y-88078084D01*
X87448351Y-88075392D01*
X87408729Y-88030668D01*
X87359561Y-87996730D01*
X87356551Y-87994515D01*
X87309525Y-87957672D01*
X87309523Y-87957671D01*
X87300976Y-87953824D01*
X87281438Y-87942805D01*
X87273726Y-87937482D01*
X87273724Y-87937481D01*
X87217866Y-87916296D01*
X87214407Y-87914863D01*
X87159940Y-87890350D01*
X87159941Y-87890350D01*
X87152587Y-87889002D01*
X87150722Y-87888660D01*
X87129114Y-87882637D01*
X87120345Y-87879311D01*
X87061029Y-87872108D01*
X87057328Y-87871545D01*
X86998589Y-87860781D01*
X86998581Y-87860780D01*
X86951985Y-87863599D01*
X86883879Y-87847997D01*
X86835020Y-87798052D01*
X86820499Y-87739825D01*
X86820499Y-87092129D01*
X86820498Y-87092123D01*
X86820497Y-87092116D01*
X86815299Y-87043757D01*
X86814091Y-87032516D01*
X86763797Y-86897671D01*
X86763793Y-86897664D01*
X86677547Y-86782455D01*
X86677544Y-86782452D01*
X86562335Y-86696206D01*
X86562328Y-86696202D01*
X86427482Y-86645908D01*
X86427483Y-86645908D01*
X86367883Y-86639501D01*
X86367881Y-86639500D01*
X86367873Y-86639500D01*
X86367864Y-86639500D01*
X85272129Y-86639500D01*
X85272123Y-86639501D01*
X85212516Y-86645908D01*
X85077671Y-86696202D01*
X85077664Y-86696206D01*
X84962455Y-86782452D01*
X84962452Y-86782455D01*
X84876206Y-86897664D01*
X84876202Y-86897671D01*
X84825908Y-87032517D01*
X84819501Y-87092116D01*
X84819501Y-87092123D01*
X84819500Y-87092135D01*
X84819500Y-89987870D01*
X84819501Y-89987876D01*
X84825908Y-90047483D01*
X84876202Y-90182328D01*
X84876206Y-90182335D01*
X84962452Y-90297544D01*
X84962455Y-90297547D01*
X85077663Y-90383792D01*
X85077665Y-90383793D01*
X85077669Y-90383796D01*
X85077673Y-90383797D01*
X85079924Y-90385027D01*
X85081746Y-90386849D01*
X85084769Y-90389112D01*
X85084443Y-90389546D01*
X85129331Y-90434431D01*
X85144500Y-90493861D01*
X85144500Y-92386138D01*
X85124815Y-92453177D01*
X85084581Y-92490637D01*
X85084769Y-92490888D01*
X85082441Y-92492630D01*
X85079932Y-92494967D01*
X85077670Y-92496202D01*
X84962455Y-92582452D01*
X84962452Y-92582455D01*
X84876206Y-92697664D01*
X84876202Y-92697671D01*
X84825908Y-92832517D01*
X84821950Y-92869336D01*
X84819501Y-92892123D01*
X84819500Y-92892135D01*
X84819500Y-95787870D01*
X84819501Y-95787876D01*
X84825908Y-95847483D01*
X84876202Y-95982328D01*
X84876206Y-95982335D01*
X84962452Y-96097544D01*
X84962455Y-96097547D01*
X85077664Y-96183793D01*
X85077671Y-96183797D01*
X85212517Y-96234091D01*
X85212516Y-96234091D01*
X85219444Y-96234835D01*
X85272127Y-96240500D01*
X86367872Y-96240499D01*
X86427483Y-96234091D01*
X86562331Y-96183796D01*
X86677546Y-96097546D01*
X86763796Y-95982331D01*
X86814091Y-95847483D01*
X86820500Y-95787873D01*
X86820499Y-92892128D01*
X86814091Y-92832517D01*
X86788007Y-92762583D01*
X86763797Y-92697671D01*
X86763793Y-92697664D01*
X86677547Y-92582455D01*
X86677544Y-92582452D01*
X86562329Y-92496202D01*
X86560068Y-92494967D01*
X86558246Y-92493145D01*
X86555231Y-92490888D01*
X86555555Y-92490454D01*
X86510665Y-92445559D01*
X86495500Y-92386138D01*
X86495500Y-90493861D01*
X86515185Y-90426822D01*
X86555418Y-90389362D01*
X86555231Y-90389112D01*
X86557565Y-90387364D01*
X86560076Y-90385027D01*
X86562323Y-90383798D01*
X86562331Y-90383796D01*
X86677546Y-90297546D01*
X86763796Y-90182331D01*
X86814091Y-90047483D01*
X86820500Y-89987873D01*
X86820499Y-89657660D01*
X86840183Y-89590623D01*
X86892987Y-89544868D01*
X86962146Y-89534924D01*
X87025701Y-89563949D01*
X87032180Y-89569981D01*
X89983181Y-92520982D01*
X90016666Y-92582305D01*
X90019500Y-92608663D01*
X90019500Y-93465001D01*
X90019501Y-93465019D01*
X90030000Y-93567796D01*
X90030001Y-93567799D01*
X90076901Y-93709331D01*
X90085186Y-93734334D01*
X90177288Y-93883656D01*
X90301344Y-94007712D01*
X90450666Y-94099814D01*
X90617203Y-94154999D01*
X90719991Y-94165500D01*
X92120008Y-94165499D01*
X92222797Y-94154999D01*
X92389334Y-94099814D01*
X92538656Y-94007712D01*
X92662712Y-93883656D01*
X92754814Y-93734334D01*
X92809999Y-93567797D01*
X92820500Y-93465009D01*
X92820499Y-92608661D01*
X92840183Y-92541623D01*
X92856813Y-92520986D01*
X94775981Y-90601819D01*
X94837305Y-90568334D01*
X94863663Y-90565500D01*
X95113942Y-90565500D01*
X95180981Y-90585185D01*
X95219479Y-90624401D01*
X95302288Y-90758656D01*
X95426344Y-90882712D01*
X95575666Y-90974814D01*
X95742203Y-91029999D01*
X95844991Y-91040500D01*
X97073415Y-91040499D01*
X97140454Y-91060184D01*
X97186209Y-91112987D01*
X97196153Y-91182146D01*
X97167128Y-91245702D01*
X97161096Y-91252180D01*
X96610095Y-91803181D01*
X96548772Y-91836666D01*
X96522414Y-91839500D01*
X95844998Y-91839500D01*
X95844980Y-91839501D01*
X95742203Y-91850000D01*
X95742200Y-91850001D01*
X95575668Y-91905185D01*
X95575663Y-91905187D01*
X95426342Y-91997289D01*
X95302289Y-92121342D01*
X95210187Y-92270663D01*
X95210185Y-92270668D01*
X95200465Y-92300002D01*
X95155001Y-92437203D01*
X95155001Y-92437204D01*
X95155000Y-92437204D01*
X95144500Y-92539983D01*
X95144500Y-93440001D01*
X95144501Y-93440019D01*
X95155000Y-93542796D01*
X95155001Y-93542799D01*
X95210185Y-93709331D01*
X95210186Y-93709334D01*
X95302288Y-93858656D01*
X95426344Y-93982712D01*
X95575666Y-94074814D01*
X95659505Y-94102595D01*
X95716948Y-94142366D01*
X95743772Y-94206882D01*
X95744500Y-94220300D01*
X95744500Y-96890500D01*
X95724815Y-96957539D01*
X95672011Y-97003294D01*
X95620500Y-97014500D01*
X80382585Y-97014500D01*
X80315546Y-96994815D01*
X80294904Y-96978181D01*
X79500073Y-96183350D01*
X78581816Y-95265093D01*
X78548333Y-95203773D01*
X78545500Y-95177424D01*
X78545500Y-94590000D01*
X80820000Y-94590000D01*
X80820000Y-95787844D01*
X80826401Y-95847372D01*
X80826403Y-95847379D01*
X80876645Y-95982086D01*
X80876649Y-95982093D01*
X80962809Y-96097187D01*
X80962812Y-96097190D01*
X81077906Y-96183350D01*
X81077913Y-96183354D01*
X81212620Y-96233596D01*
X81212627Y-96233598D01*
X81272155Y-96239999D01*
X81272172Y-96240000D01*
X81570000Y-96240000D01*
X81570000Y-94590000D01*
X82070000Y-94590000D01*
X82070000Y-96240000D01*
X82367828Y-96240000D01*
X82367844Y-96239999D01*
X82427372Y-96233598D01*
X82427379Y-96233596D01*
X82562086Y-96183354D01*
X82562093Y-96183350D01*
X82677187Y-96097190D01*
X82677190Y-96097187D01*
X82763350Y-95982093D01*
X82763354Y-95982086D01*
X82813596Y-95847379D01*
X82813598Y-95847372D01*
X82819999Y-95787844D01*
X82820000Y-95787827D01*
X82820000Y-94590000D01*
X82070000Y-94590000D01*
X81570000Y-94590000D01*
X80820000Y-94590000D01*
X78545500Y-94590000D01*
X78545500Y-94090000D01*
X80820000Y-94090000D01*
X81570000Y-94090000D01*
X81570000Y-92440000D01*
X82070000Y-92440000D01*
X82070000Y-94090000D01*
X82820000Y-94090000D01*
X82820000Y-92892172D01*
X82819999Y-92892155D01*
X82813598Y-92832627D01*
X82813596Y-92832620D01*
X82763354Y-92697913D01*
X82763350Y-92697906D01*
X82677190Y-92582812D01*
X82677187Y-92582809D01*
X82562093Y-92496649D01*
X82562086Y-92496645D01*
X82427379Y-92446403D01*
X82427372Y-92446401D01*
X82367844Y-92440000D01*
X82070000Y-92440000D01*
X81570000Y-92440000D01*
X81272155Y-92440000D01*
X81212627Y-92446401D01*
X81212620Y-92446403D01*
X81077913Y-92496645D01*
X81077906Y-92496649D01*
X80962812Y-92582809D01*
X80962809Y-92582812D01*
X80876649Y-92697906D01*
X80876645Y-92697913D01*
X80826403Y-92832620D01*
X80826401Y-92832627D01*
X80820000Y-92892155D01*
X80820000Y-94090000D01*
X78545500Y-94090000D01*
X78545500Y-88790000D01*
X80820000Y-88790000D01*
X80820000Y-89987844D01*
X80826401Y-90047372D01*
X80826403Y-90047379D01*
X80876645Y-90182086D01*
X80876649Y-90182093D01*
X80962809Y-90297187D01*
X80962812Y-90297190D01*
X81077906Y-90383350D01*
X81077913Y-90383354D01*
X81212620Y-90433596D01*
X81212627Y-90433598D01*
X81272155Y-90439999D01*
X81272172Y-90440000D01*
X81570000Y-90440000D01*
X81570000Y-88790000D01*
X82070000Y-88790000D01*
X82070000Y-90440000D01*
X82367828Y-90440000D01*
X82367844Y-90439999D01*
X82427372Y-90433598D01*
X82427379Y-90433596D01*
X82562086Y-90383354D01*
X82562093Y-90383350D01*
X82677187Y-90297190D01*
X82677190Y-90297187D01*
X82763350Y-90182093D01*
X82763354Y-90182086D01*
X82813596Y-90047379D01*
X82813598Y-90047372D01*
X82819999Y-89987844D01*
X82820000Y-89987827D01*
X82820000Y-88790000D01*
X82070000Y-88790000D01*
X81570000Y-88790000D01*
X80820000Y-88790000D01*
X78545500Y-88790000D01*
X78545500Y-88290000D01*
X80820000Y-88290000D01*
X81570000Y-88290000D01*
X81570000Y-86640000D01*
X82070000Y-86640000D01*
X82070000Y-88290000D01*
X82820000Y-88290000D01*
X82820000Y-87092172D01*
X82819999Y-87092155D01*
X82813598Y-87032627D01*
X82813596Y-87032620D01*
X82763354Y-86897913D01*
X82763350Y-86897906D01*
X82677190Y-86782812D01*
X82677187Y-86782809D01*
X82562093Y-86696649D01*
X82562086Y-86696645D01*
X82427379Y-86646403D01*
X82427372Y-86646401D01*
X82367844Y-86640000D01*
X82070000Y-86640000D01*
X81570000Y-86640000D01*
X81272155Y-86640000D01*
X81212627Y-86646401D01*
X81212620Y-86646403D01*
X81077913Y-86696645D01*
X81077906Y-86696649D01*
X80962812Y-86782809D01*
X80962809Y-86782812D01*
X80876649Y-86897906D01*
X80876645Y-86897913D01*
X80826403Y-87032620D01*
X80826401Y-87032627D01*
X80820000Y-87092155D01*
X80820000Y-88290000D01*
X78545500Y-88290000D01*
X78545500Y-86316448D01*
X78545500Y-84527515D01*
X90064500Y-84527515D01*
X90075000Y-84630295D01*
X90075001Y-84630297D01*
X90091470Y-84679998D01*
X90130186Y-84796835D01*
X90130187Y-84796837D01*
X90222286Y-84946151D01*
X90222289Y-84946155D01*
X90346344Y-85070210D01*
X90346348Y-85070213D01*
X90495662Y-85162312D01*
X90495664Y-85162313D01*
X90495666Y-85162314D01*
X90662203Y-85217499D01*
X90764992Y-85228000D01*
X90764997Y-85228000D01*
X92115003Y-85228000D01*
X92115008Y-85228000D01*
X92217797Y-85217499D01*
X92384334Y-85162314D01*
X92533655Y-85070211D01*
X92657711Y-84946155D01*
X92688503Y-84896232D01*
X92717390Y-84849402D01*
X92769338Y-84802678D01*
X92822928Y-84790500D01*
X93853194Y-84790500D01*
X93920233Y-84810185D01*
X93958731Y-84849401D01*
X94032288Y-84968656D01*
X94156344Y-85092712D01*
X94305666Y-85184814D01*
X94472203Y-85239999D01*
X94574991Y-85250500D01*
X95925008Y-85250499D01*
X96027797Y-85239999D01*
X96194334Y-85184814D01*
X96343656Y-85092712D01*
X96467712Y-84968656D01*
X96559814Y-84819334D01*
X96614999Y-84652797D01*
X96625500Y-84550009D01*
X96625499Y-83649992D01*
X96625334Y-83648381D01*
X96614999Y-83547203D01*
X96614998Y-83547200D01*
X96611221Y-83535801D01*
X96559814Y-83380666D01*
X96467712Y-83231344D01*
X96343656Y-83107288D01*
X96229008Y-83036573D01*
X96194336Y-83015187D01*
X96194331Y-83015185D01*
X96188742Y-83013333D01*
X96027797Y-82960001D01*
X96027795Y-82960000D01*
X95925010Y-82949500D01*
X94574998Y-82949500D01*
X94574981Y-82949501D01*
X94472203Y-82960000D01*
X94472200Y-82960001D01*
X94305668Y-83015185D01*
X94305663Y-83015187D01*
X94156342Y-83107289D01*
X94060451Y-83203181D01*
X93999128Y-83236666D01*
X93972770Y-83239500D01*
X92822928Y-83239500D01*
X92755889Y-83219815D01*
X92717390Y-83180598D01*
X92657711Y-83083845D01*
X92533655Y-82959789D01*
X92533651Y-82959786D01*
X92384337Y-82867687D01*
X92384335Y-82867686D01*
X92301065Y-82840093D01*
X92217797Y-82812501D01*
X92217795Y-82812500D01*
X92115015Y-82802000D01*
X92115008Y-82802000D01*
X90764992Y-82802000D01*
X90764984Y-82802000D01*
X90662204Y-82812500D01*
X90662203Y-82812501D01*
X90495664Y-82867686D01*
X90495662Y-82867687D01*
X90346348Y-82959786D01*
X90346344Y-82959789D01*
X90222289Y-83083844D01*
X90222286Y-83083848D01*
X90130187Y-83233162D01*
X90130186Y-83233164D01*
X90075001Y-83399703D01*
X90075000Y-83399704D01*
X90064500Y-83502484D01*
X90064500Y-84527515D01*
X78545500Y-84527515D01*
X78545500Y-82806448D01*
X78545500Y-82806447D01*
X78545500Y-81211584D01*
X78565185Y-81144545D01*
X78617989Y-81098790D01*
X78687147Y-81088846D01*
X78750703Y-81117871D01*
X78757179Y-81123901D01*
X80669852Y-83036575D01*
X80669853Y-83036576D01*
X80793424Y-83160147D01*
X80827590Y-83181615D01*
X80833243Y-83185626D01*
X80864798Y-83210790D01*
X80901155Y-83228298D01*
X80907221Y-83231649D01*
X80941394Y-83253122D01*
X80979470Y-83266445D01*
X80985896Y-83269107D01*
X81022248Y-83286613D01*
X81061591Y-83295592D01*
X81068255Y-83297512D01*
X81106343Y-83310841D01*
X81146433Y-83315357D01*
X81153291Y-83316523D01*
X81173040Y-83321030D01*
X81192622Y-83325500D01*
X87717374Y-83325500D01*
X87717378Y-83325500D01*
X87756717Y-83316520D01*
X87763556Y-83315358D01*
X87803657Y-83310841D01*
X87841739Y-83297514D01*
X87848412Y-83295591D01*
X87887752Y-83286613D01*
X87924118Y-83269099D01*
X87930519Y-83266448D01*
X87968606Y-83253122D01*
X88002763Y-83231658D01*
X88008845Y-83228297D01*
X88045202Y-83210790D01*
X88076756Y-83185625D01*
X88082414Y-83181611D01*
X88116576Y-83160147D01*
X88240147Y-83036576D01*
X88240147Y-83036574D01*
X88250355Y-83026367D01*
X88250356Y-83026364D01*
X89184903Y-82091819D01*
X89246227Y-82058334D01*
X89272585Y-82055500D01*
X90255272Y-82055500D01*
X90322311Y-82075185D01*
X90342953Y-82091819D01*
X90346344Y-82095210D01*
X90346348Y-82095213D01*
X90495662Y-82187312D01*
X90495664Y-82187313D01*
X90495666Y-82187314D01*
X90662203Y-82242499D01*
X90764992Y-82253000D01*
X90764997Y-82253000D01*
X92115003Y-82253000D01*
X92115008Y-82253000D01*
X92217797Y-82242499D01*
X92384334Y-82187314D01*
X92533655Y-82095211D01*
X92657711Y-81971155D01*
X92749814Y-81821834D01*
X92804999Y-81655297D01*
X92815500Y-81552508D01*
X92815500Y-81250000D01*
X93875001Y-81250000D01*
X93875001Y-81449986D01*
X93885494Y-81552697D01*
X93940641Y-81719119D01*
X93940643Y-81719124D01*
X94032684Y-81868345D01*
X94156654Y-81992315D01*
X94305875Y-82084356D01*
X94305880Y-82084358D01*
X94472302Y-82139505D01*
X94472309Y-82139506D01*
X94575019Y-82149999D01*
X94999999Y-82149999D01*
X95000000Y-82149998D01*
X95000000Y-81250000D01*
X95500000Y-81250000D01*
X95500000Y-82149999D01*
X95924972Y-82149999D01*
X95924986Y-82149998D01*
X96027697Y-82139505D01*
X96194119Y-82084358D01*
X96194124Y-82084356D01*
X96343345Y-81992315D01*
X96467315Y-81868345D01*
X96559356Y-81719124D01*
X96559358Y-81719119D01*
X96614505Y-81552697D01*
X96614506Y-81552690D01*
X96624999Y-81449986D01*
X96625000Y-81449973D01*
X96625000Y-81250000D01*
X95500000Y-81250000D01*
X95000000Y-81250000D01*
X93875001Y-81250000D01*
X92815500Y-81250000D01*
X92815500Y-80750000D01*
X93875000Y-80750000D01*
X95000000Y-80750000D01*
X95000000Y-79850000D01*
X95500000Y-79850000D01*
X95500000Y-80750000D01*
X96624999Y-80750000D01*
X96624999Y-80550028D01*
X96624998Y-80550013D01*
X96619889Y-80500000D01*
X101570000Y-80500000D01*
X102620000Y-80500000D01*
X102620000Y-78950000D01*
X103120000Y-78950000D01*
X103120000Y-80500000D01*
X104169999Y-80500000D01*
X104169999Y-79650028D01*
X104169998Y-79650013D01*
X104159505Y-79547302D01*
X104104358Y-79380880D01*
X104104356Y-79380875D01*
X104012315Y-79231654D01*
X103888345Y-79107684D01*
X103739124Y-79015643D01*
X103739119Y-79015641D01*
X103572697Y-78960494D01*
X103572690Y-78960493D01*
X103469986Y-78950000D01*
X103120000Y-78950000D01*
X102620000Y-78950000D01*
X102270028Y-78950000D01*
X102270012Y-78950001D01*
X102167302Y-78960494D01*
X102000880Y-79015641D01*
X102000875Y-79015643D01*
X101851654Y-79107684D01*
X101727684Y-79231654D01*
X101635643Y-79380875D01*
X101635641Y-79380880D01*
X101580494Y-79547302D01*
X101580493Y-79547309D01*
X101570000Y-79650013D01*
X101570000Y-80500000D01*
X96619889Y-80500000D01*
X96614505Y-80447302D01*
X96559358Y-80280880D01*
X96559356Y-80280875D01*
X96467315Y-80131654D01*
X96343345Y-80007684D01*
X96194124Y-79915643D01*
X96194119Y-79915641D01*
X96027697Y-79860494D01*
X96027690Y-79860493D01*
X95924986Y-79850000D01*
X95500000Y-79850000D01*
X95000000Y-79850000D01*
X94575028Y-79850000D01*
X94575012Y-79850001D01*
X94472302Y-79860494D01*
X94305880Y-79915641D01*
X94305875Y-79915643D01*
X94156654Y-80007684D01*
X94032684Y-80131654D01*
X93940643Y-80280875D01*
X93940641Y-80280880D01*
X93885494Y-80447302D01*
X93885493Y-80447309D01*
X93875000Y-80550013D01*
X93875000Y-80750000D01*
X92815500Y-80750000D01*
X92815500Y-80527492D01*
X92804999Y-80424703D01*
X92749814Y-80258166D01*
X92747371Y-80254206D01*
X92657713Y-80108848D01*
X92657710Y-80108844D01*
X92533655Y-79984789D01*
X92533651Y-79984786D01*
X92384337Y-79892687D01*
X92384335Y-79892686D01*
X92255516Y-79850000D01*
X92217797Y-79837501D01*
X92217795Y-79837500D01*
X92115015Y-79827000D01*
X92115008Y-79827000D01*
X90764992Y-79827000D01*
X90764984Y-79827000D01*
X90662204Y-79837500D01*
X90662203Y-79837501D01*
X90495664Y-79892686D01*
X90495662Y-79892687D01*
X90346348Y-79984786D01*
X90346344Y-79984789D01*
X90222289Y-80108844D01*
X90222286Y-80108848D01*
X90130187Y-80258162D01*
X90130186Y-80258164D01*
X90076724Y-80419504D01*
X90036951Y-80476949D01*
X89972436Y-80503772D01*
X89959018Y-80504500D01*
X88987378Y-80504500D01*
X88812622Y-80504500D01*
X88812620Y-80504500D01*
X88812614Y-80504501D01*
X88773295Y-80513475D01*
X88766438Y-80514640D01*
X88726338Y-80519159D01*
X88688259Y-80532484D01*
X88681576Y-80534409D01*
X88642246Y-80543387D01*
X88605898Y-80560891D01*
X88599474Y-80563552D01*
X88561398Y-80576876D01*
X88561392Y-80576879D01*
X88527233Y-80598340D01*
X88521147Y-80601704D01*
X88484798Y-80619209D01*
X88453259Y-80644361D01*
X88447586Y-80648386D01*
X88413426Y-80669851D01*
X88413425Y-80669852D01*
X88413423Y-80669853D01*
X88413424Y-80669853D01*
X88391616Y-80691661D01*
X88364993Y-80718283D01*
X88364992Y-80718284D01*
X87345097Y-81738181D01*
X87283774Y-81771666D01*
X87257416Y-81774500D01*
X81652585Y-81774500D01*
X81585546Y-81754815D01*
X81564904Y-81738181D01*
X80990025Y-81163302D01*
X80956540Y-81101979D01*
X80961524Y-81032287D01*
X81003396Y-80976354D01*
X81068860Y-80951937D01*
X81121039Y-80959439D01*
X81212620Y-80993596D01*
X81212627Y-80993598D01*
X81272155Y-80999999D01*
X81272172Y-81000000D01*
X81570000Y-81000000D01*
X81570000Y-79350000D01*
X82070000Y-79350000D01*
X82070000Y-81000000D01*
X82367828Y-81000000D01*
X82367844Y-80999999D01*
X82427372Y-80993598D01*
X82427379Y-80993596D01*
X82562086Y-80943354D01*
X82562093Y-80943350D01*
X82677187Y-80857190D01*
X82677190Y-80857187D01*
X82763350Y-80742093D01*
X82763354Y-80742086D01*
X82813596Y-80607379D01*
X82813598Y-80607372D01*
X82819999Y-80547844D01*
X82820000Y-80547827D01*
X82820000Y-79350000D01*
X82070000Y-79350000D01*
X81570000Y-79350000D01*
X80820000Y-79350000D01*
X80820000Y-80547844D01*
X80826401Y-80607372D01*
X80826403Y-80607380D01*
X80860560Y-80698960D01*
X80865544Y-80768652D01*
X80832059Y-80829975D01*
X80770735Y-80863459D01*
X80701044Y-80858474D01*
X80656697Y-80829974D01*
X79551819Y-79725096D01*
X79518334Y-79663773D01*
X79515500Y-79637415D01*
X79515500Y-78850000D01*
X80820000Y-78850000D01*
X81570000Y-78850000D01*
X81570000Y-77200000D01*
X82070000Y-77200000D01*
X82070000Y-78850000D01*
X82820000Y-78850000D01*
X82820000Y-77652172D01*
X82819999Y-77652155D01*
X82813598Y-77592627D01*
X82813596Y-77592620D01*
X82763354Y-77457913D01*
X82763350Y-77457906D01*
X82677190Y-77342812D01*
X82677187Y-77342809D01*
X82562093Y-77256649D01*
X82562086Y-77256645D01*
X82427379Y-77206403D01*
X82427372Y-77206401D01*
X82367844Y-77200000D01*
X82070000Y-77200000D01*
X81570000Y-77200000D01*
X81272155Y-77200000D01*
X81212627Y-77206401D01*
X81212620Y-77206403D01*
X81077913Y-77256645D01*
X81077906Y-77256649D01*
X80962812Y-77342809D01*
X80962809Y-77342812D01*
X80876649Y-77457906D01*
X80876645Y-77457913D01*
X80826403Y-77592620D01*
X80826401Y-77592627D01*
X80820000Y-77652155D01*
X80820000Y-78850000D01*
X79515500Y-78850000D01*
X79515500Y-77628525D01*
X79522460Y-77587567D01*
X79525366Y-77579260D01*
X79525367Y-77579258D01*
X79525367Y-77579257D01*
X79525368Y-77579255D01*
X79534356Y-77499474D01*
X79538598Y-77478436D01*
X79540500Y-77471961D01*
X79540500Y-77448435D01*
X79540889Y-77441496D01*
X79545565Y-77400000D01*
X79540889Y-77358502D01*
X79540500Y-77351564D01*
X79540500Y-76248435D01*
X79540889Y-76241496D01*
X79545565Y-76200000D01*
X79540889Y-76158502D01*
X79540500Y-76151564D01*
X79540500Y-76128038D01*
X79538598Y-76121561D01*
X79534355Y-76100507D01*
X79525368Y-76020747D01*
X79525368Y-76020745D01*
X79522458Y-76012427D01*
X79515500Y-75971474D01*
X79515500Y-73550000D01*
X80820000Y-73550000D01*
X80820000Y-74747844D01*
X80826401Y-74807372D01*
X80826403Y-74807379D01*
X80876645Y-74942086D01*
X80876649Y-74942093D01*
X80962809Y-75057187D01*
X80962812Y-75057190D01*
X81077906Y-75143350D01*
X81077913Y-75143354D01*
X81212620Y-75193596D01*
X81212627Y-75193598D01*
X81272155Y-75199999D01*
X81272172Y-75200000D01*
X81570000Y-75200000D01*
X81570000Y-73550000D01*
X82070000Y-73550000D01*
X82070000Y-75200000D01*
X82367828Y-75200000D01*
X82367844Y-75199999D01*
X82427372Y-75193598D01*
X82427379Y-75193596D01*
X82562086Y-75143354D01*
X82562093Y-75143350D01*
X82677187Y-75057190D01*
X82677190Y-75057187D01*
X82763350Y-74942093D01*
X82763354Y-74942086D01*
X82813596Y-74807379D01*
X82813598Y-74807372D01*
X82819999Y-74747844D01*
X82820000Y-74747827D01*
X82820000Y-73550000D01*
X82070000Y-73550000D01*
X81570000Y-73550000D01*
X80820000Y-73550000D01*
X79515500Y-73550000D01*
X79515500Y-73050000D01*
X80820000Y-73050000D01*
X81570000Y-73050000D01*
X81570000Y-71400000D01*
X82070000Y-71400000D01*
X82070000Y-73050000D01*
X82820000Y-73050000D01*
X82820000Y-71852172D01*
X82819999Y-71852155D01*
X82813598Y-71792627D01*
X82813596Y-71792620D01*
X82763354Y-71657913D01*
X82763350Y-71657906D01*
X82677190Y-71542812D01*
X82677187Y-71542809D01*
X82562093Y-71456649D01*
X82562086Y-71456645D01*
X82427379Y-71406403D01*
X82427372Y-71406401D01*
X82367844Y-71400000D01*
X82070000Y-71400000D01*
X81570000Y-71400000D01*
X81272155Y-71400000D01*
X81212627Y-71406401D01*
X81212620Y-71406403D01*
X81077913Y-71456645D01*
X81077906Y-71456649D01*
X80962812Y-71542809D01*
X80962809Y-71542812D01*
X80876649Y-71657906D01*
X80876645Y-71657913D01*
X80826403Y-71792620D01*
X80826401Y-71792627D01*
X80820000Y-71852155D01*
X80820000Y-73050000D01*
X79515500Y-73050000D01*
X79515500Y-71492584D01*
X79535185Y-71425545D01*
X79551819Y-71404903D01*
X80294904Y-70661819D01*
X80356227Y-70628334D01*
X80382585Y-70625500D01*
X90257374Y-70625500D01*
X90257378Y-70625500D01*
X90296717Y-70616520D01*
X90303556Y-70615358D01*
X90343657Y-70610841D01*
X90381739Y-70597514D01*
X90388412Y-70595591D01*
X90427752Y-70586613D01*
X90464118Y-70569099D01*
X90470519Y-70566448D01*
X90508606Y-70553122D01*
X90542763Y-70531658D01*
X90548845Y-70528297D01*
X90585202Y-70510790D01*
X90616756Y-70485625D01*
X90622414Y-70481611D01*
X90656576Y-70460147D01*
X90780147Y-70336576D01*
X90780147Y-70336574D01*
X90790355Y-70326367D01*
X90790356Y-70326364D01*
X92019157Y-69097566D01*
X92019157Y-69097565D01*
X92024521Y-69092202D01*
X92024536Y-69092184D01*
X98715064Y-62401657D01*
X98717023Y-62399783D01*
X98767664Y-62353505D01*
X98801402Y-62304813D01*
X98803862Y-62301507D01*
X98840790Y-62255202D01*
X98847973Y-62240283D01*
X98857764Y-62223471D01*
X98867195Y-62209863D01*
X98889239Y-62154914D01*
X98890921Y-62151100D01*
X98916613Y-62097752D01*
X98920296Y-62081614D01*
X98926104Y-62063033D01*
X98932267Y-62047674D01*
X98941536Y-61989173D01*
X98942317Y-61985130D01*
X98955500Y-61927378D01*
X98955500Y-61919498D01*
X98975185Y-61852460D01*
X99027989Y-61806705D01*
X99079500Y-61795499D01*
X99227871Y-61795499D01*
X99227872Y-61795499D01*
X99287483Y-61789091D01*
X99422331Y-61738796D01*
X99537546Y-61652546D01*
X99623796Y-61537331D01*
X99674091Y-61402483D01*
X99680500Y-61342873D01*
X99680500Y-60294500D01*
X99700185Y-60227461D01*
X99752989Y-60181706D01*
X99804500Y-60170500D01*
X101362361Y-60170500D01*
X101429400Y-60190185D01*
X101475155Y-60242989D01*
X101480067Y-60255496D01*
X101535185Y-60421831D01*
X101535187Y-60421836D01*
X101555862Y-60455356D01*
X101627288Y-60571156D01*
X101751344Y-60695212D01*
X101900666Y-60787314D01*
X102067203Y-60842499D01*
X102169991Y-60853000D01*
X103570008Y-60852999D01*
X103672797Y-60842499D01*
X103839334Y-60787314D01*
X103988656Y-60695212D01*
X104112712Y-60571156D01*
X104204814Y-60421834D01*
X104259999Y-60255297D01*
X104270500Y-60152509D01*
X104270499Y-59227492D01*
X104268242Y-59205401D01*
X104259999Y-59124703D01*
X104259998Y-59124700D01*
X104245136Y-59079851D01*
X104204814Y-58958166D01*
X104112712Y-58808844D01*
X103988656Y-58684788D01*
X103882807Y-58619500D01*
X103839336Y-58592687D01*
X103839331Y-58592685D01*
X103837862Y-58592198D01*
X103672797Y-58537501D01*
X103672795Y-58537500D01*
X103570010Y-58527000D01*
X102169998Y-58527000D01*
X102169981Y-58527001D01*
X102067203Y-58537500D01*
X102067200Y-58537501D01*
X101900668Y-58592685D01*
X101900659Y-58592690D01*
X101887123Y-58601039D01*
X101822027Y-58619500D01*
X99804499Y-58619500D01*
X99737460Y-58599815D01*
X99691705Y-58547011D01*
X99680499Y-58495500D01*
X99680499Y-57447129D01*
X99680498Y-57447123D01*
X99680497Y-57447116D01*
X99674091Y-57387517D01*
X99671271Y-57379957D01*
X99623797Y-57252671D01*
X99623793Y-57252664D01*
X99537547Y-57137455D01*
X99537544Y-57137452D01*
X99422335Y-57051206D01*
X99422328Y-57051202D01*
X99287482Y-57000908D01*
X99287483Y-57000908D01*
X99227883Y-56994501D01*
X99227881Y-56994500D01*
X99227873Y-56994500D01*
X99227864Y-56994500D01*
X97132129Y-56994500D01*
X97132123Y-56994501D01*
X97072516Y-57000908D01*
X96937671Y-57051202D01*
X96937664Y-57051206D01*
X96822455Y-57137452D01*
X96822452Y-57137455D01*
X96736206Y-57252664D01*
X96736202Y-57252671D01*
X96685908Y-57387517D01*
X96679638Y-57445845D01*
X96679501Y-57447123D01*
X96679500Y-57447135D01*
X96679500Y-61342870D01*
X96679501Y-61342876D01*
X96685908Y-61402483D01*
X96736202Y-61537328D01*
X96736206Y-61537335D01*
X96822452Y-61652544D01*
X96822455Y-61652547D01*
X96937664Y-61738793D01*
X96945454Y-61743047D01*
X96944693Y-61744440D01*
X96992574Y-61780274D01*
X97016999Y-61845736D01*
X97002156Y-61914010D01*
X96980997Y-61942278D01*
X92348386Y-66574891D01*
X90922438Y-68000839D01*
X90922434Y-68000843D01*
X90387769Y-68535509D01*
X89885097Y-69038181D01*
X89823774Y-69071666D01*
X89797416Y-69074500D01*
X80097378Y-69074500D01*
X79922622Y-69074500D01*
X79922620Y-69074500D01*
X79922614Y-69074501D01*
X79883295Y-69083475D01*
X79876438Y-69084640D01*
X79836338Y-69089159D01*
X79798259Y-69102484D01*
X79791576Y-69104409D01*
X79752246Y-69113387D01*
X79715898Y-69130891D01*
X79709474Y-69133552D01*
X79671398Y-69146876D01*
X79671392Y-69146879D01*
X79637233Y-69168340D01*
X79631147Y-69171704D01*
X79594798Y-69189209D01*
X79563259Y-69214361D01*
X79557586Y-69218386D01*
X79523426Y-69239851D01*
X79523425Y-69239852D01*
X79523423Y-69239853D01*
X79523424Y-69239853D01*
X79499493Y-69263784D01*
X79474993Y-69288283D01*
X79474992Y-69288284D01*
X78253426Y-70509851D01*
X78253424Y-70509853D01*
X78129852Y-70633424D01*
X78115848Y-70655710D01*
X78108389Y-70667581D01*
X78104369Y-70673248D01*
X78079210Y-70704796D01*
X78061704Y-70741147D01*
X78058340Y-70747233D01*
X78036879Y-70781392D01*
X78036876Y-70781398D01*
X78023552Y-70819474D01*
X78020891Y-70825898D01*
X78003387Y-70862246D01*
X77994409Y-70901576D01*
X77992484Y-70908259D01*
X77979159Y-70946338D01*
X77974640Y-70986438D01*
X77973475Y-70993295D01*
X77964501Y-71032614D01*
X77964500Y-71032624D01*
X77964500Y-73287415D01*
X77944815Y-73354454D01*
X77928181Y-73375096D01*
X77707181Y-73596096D01*
X77645858Y-73629581D01*
X77576166Y-73624597D01*
X77520233Y-73582725D01*
X77495816Y-73517261D01*
X77495500Y-73508415D01*
X77495500Y-59967844D01*
X82470000Y-59967844D01*
X82476401Y-60027372D01*
X82476403Y-60027379D01*
X82526645Y-60162086D01*
X82526649Y-60162093D01*
X82612809Y-60277187D01*
X82612812Y-60277190D01*
X82727906Y-60363350D01*
X82727913Y-60363354D01*
X82862620Y-60413596D01*
X82862627Y-60413598D01*
X82922155Y-60419999D01*
X82922172Y-60420000D01*
X84220000Y-60420000D01*
X84220000Y-59141802D01*
X84381169Y-59180000D01*
X84514267Y-59180000D01*
X84646461Y-59164549D01*
X84719999Y-59137782D01*
X84719999Y-60419999D01*
X84720000Y-60420000D01*
X86017828Y-60420000D01*
X86017844Y-60419999D01*
X86077372Y-60413598D01*
X86077379Y-60413596D01*
X86212086Y-60363354D01*
X86212093Y-60363350D01*
X86327187Y-60277190D01*
X86327190Y-60277187D01*
X86413350Y-60162093D01*
X86413354Y-60162086D01*
X86463596Y-60027379D01*
X86463598Y-60027372D01*
X86469999Y-59967844D01*
X86470000Y-59967827D01*
X86470000Y-58670000D01*
X85188483Y-58670000D01*
X85223549Y-58552871D01*
X85233879Y-58375509D01*
X85203029Y-58200546D01*
X85189853Y-58170000D01*
X86470000Y-58170000D01*
X86470000Y-56872172D01*
X86469999Y-56872155D01*
X86463598Y-56812627D01*
X86463596Y-56812620D01*
X86413354Y-56677913D01*
X86413350Y-56677906D01*
X86327190Y-56562812D01*
X86327187Y-56562809D01*
X86212093Y-56476649D01*
X86212086Y-56476645D01*
X86077379Y-56426403D01*
X86077372Y-56426401D01*
X86017844Y-56420000D01*
X84720000Y-56420000D01*
X84719999Y-57698197D01*
X84558831Y-57660000D01*
X84425733Y-57660000D01*
X84293539Y-57675451D01*
X84220000Y-57702217D01*
X84220000Y-56420000D01*
X82922155Y-56420000D01*
X82862627Y-56426401D01*
X82862620Y-56426403D01*
X82727913Y-56476645D01*
X82727906Y-56476649D01*
X82612812Y-56562809D01*
X82612809Y-56562812D01*
X82526649Y-56677906D01*
X82526645Y-56677913D01*
X82476403Y-56812620D01*
X82476401Y-56812627D01*
X82470000Y-56872155D01*
X82470000Y-58170000D01*
X83751517Y-58170000D01*
X83716451Y-58287129D01*
X83706121Y-58464491D01*
X83736971Y-58639454D01*
X83750147Y-58670000D01*
X82470000Y-58670000D01*
X82470000Y-59967844D01*
X77495500Y-59967844D01*
X77495500Y-48634500D01*
X77515185Y-48567461D01*
X77567989Y-48521706D01*
X77619500Y-48510500D01*
X87903416Y-48510500D01*
X87970455Y-48530185D01*
G37*
%TD.AperFunction*%
%TA.AperFunction,Conductor*%
G36*
X154083834Y-59205401D02*
G01*
X154139767Y-59247273D01*
X154164184Y-59312737D01*
X154164500Y-59321583D01*
X154164500Y-78367415D01*
X154144815Y-78434454D01*
X154128181Y-78455096D01*
X152588434Y-79994842D01*
X152527111Y-80028327D01*
X152457419Y-80023343D01*
X152401486Y-79981471D01*
X152377225Y-79917968D01*
X152377022Y-79915643D01*
X152366207Y-79792023D01*
X152309575Y-79580670D01*
X152217102Y-79382362D01*
X152217100Y-79382359D01*
X152217099Y-79382357D01*
X152091599Y-79203124D01*
X152043677Y-79155202D01*
X151936877Y-79048402D01*
X151757639Y-78922898D01*
X151606414Y-78852381D01*
X151553977Y-78806210D01*
X151534825Y-78739016D01*
X151555041Y-78672135D01*
X151606414Y-78627618D01*
X151757639Y-78557102D01*
X151936877Y-78431598D01*
X152091598Y-78276877D01*
X152217102Y-78097639D01*
X152309575Y-77899330D01*
X152366207Y-77687977D01*
X152384540Y-77478429D01*
X152385277Y-77470002D01*
X152385277Y-77469997D01*
X152374915Y-77351564D01*
X152366207Y-77252023D01*
X152309575Y-77040670D01*
X152217102Y-76842362D01*
X152217100Y-76842359D01*
X152217099Y-76842357D01*
X152091599Y-76663124D01*
X152027798Y-76599323D01*
X151936877Y-76508402D01*
X151779438Y-76398162D01*
X151757638Y-76382897D01*
X151605824Y-76312105D01*
X151553385Y-76265932D01*
X151534233Y-76198739D01*
X151554449Y-76131858D01*
X151605825Y-76087341D01*
X151757384Y-76016668D01*
X151757386Y-76016667D01*
X151819572Y-75973124D01*
X151174401Y-75327953D01*
X151255148Y-75315165D01*
X151368045Y-75257641D01*
X151457641Y-75168045D01*
X151515165Y-75055148D01*
X151527953Y-74974401D01*
X152173124Y-75619572D01*
X152216666Y-75557387D01*
X152309101Y-75359159D01*
X152309105Y-75359150D01*
X152365710Y-75147894D01*
X152365712Y-75147884D01*
X152384775Y-74930000D01*
X152384775Y-74929999D01*
X152365712Y-74712115D01*
X152365710Y-74712105D01*
X152309105Y-74500849D01*
X152309101Y-74500840D01*
X152216668Y-74302615D01*
X152173123Y-74240428D01*
X151527953Y-74885598D01*
X151515165Y-74804852D01*
X151457641Y-74691955D01*
X151368045Y-74602359D01*
X151255148Y-74544835D01*
X151174401Y-74532046D01*
X151819572Y-73886875D01*
X151819571Y-73886873D01*
X151757391Y-73843335D01*
X151559159Y-73750898D01*
X151559150Y-73750894D01*
X151347894Y-73694289D01*
X151347884Y-73694287D01*
X151130001Y-73675225D01*
X151129999Y-73675225D01*
X150912115Y-73694287D01*
X150912105Y-73694289D01*
X150700849Y-73750894D01*
X150700840Y-73750898D01*
X150502614Y-73843332D01*
X150502612Y-73843333D01*
X150440428Y-73886875D01*
X150440427Y-73886875D01*
X151085599Y-74532046D01*
X151004852Y-74544835D01*
X150891955Y-74602359D01*
X150802359Y-74691955D01*
X150744835Y-74804852D01*
X150732046Y-74885598D01*
X150086875Y-74240427D01*
X150086875Y-74240428D01*
X150043333Y-74302612D01*
X150043332Y-74302614D01*
X149950898Y-74500840D01*
X149950894Y-74500849D01*
X149894289Y-74712105D01*
X149894287Y-74712115D01*
X149875225Y-74929999D01*
X149875225Y-74930000D01*
X149894287Y-75147884D01*
X149894289Y-75147894D01*
X149950894Y-75359150D01*
X149950898Y-75359159D01*
X150043335Y-75557391D01*
X150086873Y-75619571D01*
X150086875Y-75619572D01*
X150732046Y-74974400D01*
X150744835Y-75055148D01*
X150802359Y-75168045D01*
X150891955Y-75257641D01*
X151004852Y-75315165D01*
X151085599Y-75327953D01*
X150440426Y-75973124D01*
X150502611Y-76016666D01*
X150502617Y-76016669D01*
X150654174Y-76087341D01*
X150706614Y-76133513D01*
X150725766Y-76200706D01*
X150705551Y-76267588D01*
X150654176Y-76312105D01*
X150502358Y-76382900D01*
X150502357Y-76382900D01*
X150323121Y-76508402D01*
X150168402Y-76663121D01*
X150042900Y-76842357D01*
X150042898Y-76842361D01*
X149950426Y-77040668D01*
X149950422Y-77040677D01*
X149893793Y-77252020D01*
X149893793Y-77252024D01*
X149874723Y-77469997D01*
X149874723Y-77470002D01*
X149893793Y-77687975D01*
X149893793Y-77687979D01*
X149950422Y-77899322D01*
X149950427Y-77899336D01*
X149994148Y-77993096D01*
X150004640Y-78062173D01*
X149976120Y-78125957D01*
X149917643Y-78164196D01*
X149881766Y-78169500D01*
X134188271Y-78169500D01*
X134121232Y-78149815D01*
X134075477Y-78097011D01*
X134065533Y-78027853D01*
X134094558Y-77964297D01*
X134095453Y-77963276D01*
X134120852Y-77934605D01*
X134123386Y-77931913D01*
X142063481Y-69991818D01*
X142124805Y-69958333D01*
X142151163Y-69955499D01*
X142710500Y-69955499D01*
X142777539Y-69975184D01*
X142823294Y-70027988D01*
X142834500Y-70079499D01*
X142834500Y-71097722D01*
X142834387Y-71101466D01*
X142830781Y-71161082D01*
X142830781Y-71161085D01*
X142841545Y-71219828D01*
X142842108Y-71223529D01*
X142849311Y-71282845D01*
X142852637Y-71291614D01*
X142858661Y-71313223D01*
X142860350Y-71322440D01*
X142884863Y-71376907D01*
X142886296Y-71380366D01*
X142907481Y-71436224D01*
X142907481Y-71436225D01*
X142912805Y-71443938D01*
X142923824Y-71463476D01*
X142927671Y-71472023D01*
X142927672Y-71472025D01*
X142927673Y-71472026D01*
X142927674Y-71472028D01*
X142957295Y-71509836D01*
X142964515Y-71519051D01*
X142966730Y-71522061D01*
X143000668Y-71571229D01*
X143045392Y-71610851D01*
X143048084Y-71613385D01*
X144286619Y-72851921D01*
X144289171Y-72854633D01*
X144328771Y-72899332D01*
X144377810Y-72933181D01*
X144377922Y-72933258D01*
X144380923Y-72935465D01*
X144427972Y-72972326D01*
X144427973Y-72972326D01*
X144427974Y-72972327D01*
X144436515Y-72976171D01*
X144456066Y-72987198D01*
X144463768Y-72992514D01*
X144463774Y-72992518D01*
X144519639Y-73013705D01*
X144523070Y-73015126D01*
X144577561Y-73039650D01*
X144586776Y-73041338D01*
X144608389Y-73047363D01*
X144617155Y-73050688D01*
X144676471Y-73057890D01*
X144680158Y-73058451D01*
X144738915Y-73069219D01*
X144738916Y-73069218D01*
X144738917Y-73069219D01*
X144798534Y-73065613D01*
X144802278Y-73065500D01*
X151107722Y-73065500D01*
X151111466Y-73065613D01*
X151171082Y-73069219D01*
X151171082Y-73069218D01*
X151171085Y-73069219D01*
X151207327Y-73062577D01*
X151229836Y-73058453D01*
X151233540Y-73057889D01*
X151254888Y-73055296D01*
X151292845Y-73050688D01*
X151301605Y-73047365D01*
X151323221Y-73041338D01*
X151332439Y-73039650D01*
X151362311Y-73026206D01*
X151386916Y-73015132D01*
X151390358Y-73013705D01*
X151446226Y-72992518D01*
X151450764Y-72989385D01*
X151453935Y-72987197D01*
X151473480Y-72976172D01*
X151482028Y-72972326D01*
X151529066Y-72935472D01*
X151532059Y-72933269D01*
X151581229Y-72899332D01*
X151620852Y-72854605D01*
X151623395Y-72851905D01*
X152861922Y-71613378D01*
X152864626Y-71610834D01*
X152909332Y-71571229D01*
X152943272Y-71522055D01*
X152945462Y-71519079D01*
X152982326Y-71472028D01*
X152986175Y-71463476D01*
X152997197Y-71443935D01*
X153002517Y-71436227D01*
X153002516Y-71436227D01*
X153002518Y-71436226D01*
X153023705Y-71380358D01*
X153025132Y-71376916D01*
X153049647Y-71322446D01*
X153049647Y-71322445D01*
X153049650Y-71322439D01*
X153051338Y-71313221D01*
X153057366Y-71291603D01*
X153060688Y-71282845D01*
X153067889Y-71223540D01*
X153068453Y-71219836D01*
X153078223Y-71166518D01*
X153079219Y-71161085D01*
X153075613Y-71101466D01*
X153075500Y-71097722D01*
X153075500Y-66452277D01*
X153075613Y-66448533D01*
X153079219Y-66388915D01*
X153068453Y-66330168D01*
X153067889Y-66326463D01*
X153060688Y-66267157D01*
X153060688Y-66267155D01*
X153057363Y-66258389D01*
X153051338Y-66236776D01*
X153049650Y-66227561D01*
X153025126Y-66173070D01*
X153023703Y-66169634D01*
X153002518Y-66113774D01*
X152997198Y-66106066D01*
X152986171Y-66086515D01*
X152982326Y-66077972D01*
X152975944Y-66069827D01*
X152945486Y-66030949D01*
X152943265Y-66027932D01*
X152909333Y-65978772D01*
X152864624Y-65939163D01*
X152861912Y-65936611D01*
X151860865Y-64935564D01*
X151506818Y-64581516D01*
X151473333Y-64520193D01*
X151470499Y-64493835D01*
X151470499Y-61952129D01*
X151470498Y-61952123D01*
X151470497Y-61952116D01*
X151464091Y-61892517D01*
X151457584Y-61875072D01*
X151413797Y-61757671D01*
X151413793Y-61757664D01*
X151327547Y-61642455D01*
X151327544Y-61642452D01*
X151212335Y-61556206D01*
X151212328Y-61556202D01*
X151077482Y-61505908D01*
X151077483Y-61505908D01*
X151017883Y-61499501D01*
X151017881Y-61499500D01*
X151017873Y-61499500D01*
X151017864Y-61499500D01*
X147922129Y-61499500D01*
X147922123Y-61499501D01*
X147862516Y-61505908D01*
X147727671Y-61556202D01*
X147727664Y-61556206D01*
X147612455Y-61642452D01*
X147612452Y-61642455D01*
X147526206Y-61757664D01*
X147526202Y-61757671D01*
X147475908Y-61892517D01*
X147470559Y-61942278D01*
X147469501Y-61952123D01*
X147469500Y-61952135D01*
X147469500Y-65047870D01*
X147469501Y-65047876D01*
X147475908Y-65107483D01*
X147526202Y-65242328D01*
X147526206Y-65242335D01*
X147612452Y-65357544D01*
X147612455Y-65357547D01*
X147727664Y-65443793D01*
X147727671Y-65443797D01*
X147862517Y-65494091D01*
X147862516Y-65494091D01*
X147869444Y-65494835D01*
X147922127Y-65500500D01*
X150463836Y-65500499D01*
X150530875Y-65520184D01*
X150551517Y-65536818D01*
X151688181Y-66673482D01*
X151721666Y-66734805D01*
X151724500Y-66761163D01*
X151724500Y-70788836D01*
X151704815Y-70855875D01*
X151688181Y-70876517D01*
X150886518Y-71678181D01*
X150825195Y-71711666D01*
X150798837Y-71714500D01*
X145111164Y-71714500D01*
X145044125Y-71694815D01*
X145023483Y-71678181D01*
X144221819Y-70876517D01*
X144188334Y-70815194D01*
X144185500Y-70788836D01*
X144185500Y-69592272D01*
X144185613Y-69588527D01*
X144189219Y-69528915D01*
X144188380Y-69524336D01*
X144178451Y-69470158D01*
X144177889Y-69466463D01*
X144171392Y-69412958D01*
X144170688Y-69407155D01*
X144167363Y-69398389D01*
X144161338Y-69376776D01*
X144159650Y-69367561D01*
X144135131Y-69313082D01*
X144133703Y-69309635D01*
X144112518Y-69253774D01*
X144107194Y-69246061D01*
X144096169Y-69226514D01*
X144092325Y-69217972D01*
X144055481Y-69170944D01*
X144053281Y-69167955D01*
X144019332Y-69118771D01*
X143974633Y-69079171D01*
X143971921Y-69076619D01*
X143706818Y-68811515D01*
X143673333Y-68750193D01*
X143670499Y-68723835D01*
X143670499Y-68580001D01*
X147464891Y-68580001D01*
X147485300Y-68865362D01*
X147546109Y-69144895D01*
X147646091Y-69412958D01*
X147783191Y-69664038D01*
X147783196Y-69664046D01*
X147889882Y-69806561D01*
X147889883Y-69806562D01*
X148785195Y-68911250D01*
X148807340Y-68962587D01*
X148913433Y-69105094D01*
X149049530Y-69219294D01*
X149139216Y-69264335D01*
X148243436Y-70160115D01*
X148385960Y-70266807D01*
X148385961Y-70266808D01*
X148637042Y-70403908D01*
X148637041Y-70403908D01*
X148905104Y-70503890D01*
X149184637Y-70564699D01*
X149469999Y-70585109D01*
X149470001Y-70585109D01*
X149755362Y-70564699D01*
X150034895Y-70503890D01*
X150302958Y-70403908D01*
X150554047Y-70266803D01*
X150696561Y-70160116D01*
X150696562Y-70160115D01*
X149803748Y-69267300D01*
X149813409Y-69263784D01*
X149961844Y-69166157D01*
X150083764Y-69036930D01*
X150155768Y-68912215D01*
X151050115Y-69806562D01*
X151050116Y-69806561D01*
X151156803Y-69664047D01*
X151293908Y-69412958D01*
X151393890Y-69144895D01*
X151454699Y-68865362D01*
X151475109Y-68580001D01*
X151475109Y-68579998D01*
X151454699Y-68294637D01*
X151393890Y-68015104D01*
X151293908Y-67747041D01*
X151156808Y-67495961D01*
X151156807Y-67495960D01*
X151050115Y-67353436D01*
X150154803Y-68248747D01*
X150132660Y-68197413D01*
X150026567Y-68054906D01*
X149890470Y-67940706D01*
X149800782Y-67895663D01*
X150696562Y-66999883D01*
X150696561Y-66999882D01*
X150554046Y-66893196D01*
X150554038Y-66893191D01*
X150302957Y-66756091D01*
X150302958Y-66756091D01*
X150034895Y-66656109D01*
X149755362Y-66595300D01*
X149470001Y-66574891D01*
X149469999Y-66574891D01*
X149184637Y-66595300D01*
X148905104Y-66656109D01*
X148637041Y-66756091D01*
X148385961Y-66893191D01*
X148385953Y-66893196D01*
X148243437Y-66999882D01*
X148243436Y-66999883D01*
X149136252Y-67892699D01*
X149126591Y-67896216D01*
X148978156Y-67993843D01*
X148856236Y-68123070D01*
X148784231Y-68247784D01*
X147889883Y-67353436D01*
X147889882Y-67353437D01*
X147783196Y-67495953D01*
X147783191Y-67495961D01*
X147646091Y-67747041D01*
X147546109Y-68015104D01*
X147485300Y-68294637D01*
X147464891Y-68579998D01*
X147464891Y-68580001D01*
X143670499Y-68580001D01*
X143670499Y-67904998D01*
X143670498Y-67904981D01*
X143659999Y-67802203D01*
X143659998Y-67802200D01*
X143636250Y-67730533D01*
X143604814Y-67635666D01*
X143512712Y-67486344D01*
X143388656Y-67362288D01*
X143266902Y-67287190D01*
X143220179Y-67235243D01*
X143208000Y-67181652D01*
X143208000Y-66208767D01*
X143227685Y-66141728D01*
X143266901Y-66103230D01*
X143413656Y-66012712D01*
X143537712Y-65888656D01*
X143629814Y-65739334D01*
X143684999Y-65572797D01*
X143695500Y-65470009D01*
X143695499Y-64069992D01*
X143684999Y-63967203D01*
X143629814Y-63800666D01*
X143537712Y-63651344D01*
X143413656Y-63527288D01*
X143264334Y-63435186D01*
X143097797Y-63380001D01*
X143097795Y-63380000D01*
X142995010Y-63369500D01*
X142069998Y-63369500D01*
X142069980Y-63369501D01*
X141967203Y-63380000D01*
X141967200Y-63380001D01*
X141800668Y-63435185D01*
X141800663Y-63435187D01*
X141651342Y-63527289D01*
X141527289Y-63651342D01*
X141435187Y-63800663D01*
X141435185Y-63800668D01*
X141435115Y-63800880D01*
X141380001Y-63967203D01*
X141380001Y-63967204D01*
X141380000Y-63967204D01*
X141369500Y-64069983D01*
X141369500Y-65470001D01*
X141369501Y-65470018D01*
X141380000Y-65572796D01*
X141380001Y-65572799D01*
X141435115Y-65739119D01*
X141435186Y-65739334D01*
X141527288Y-65888656D01*
X141651344Y-66012712D01*
X141798097Y-66103229D01*
X141844821Y-66155175D01*
X141857000Y-66208767D01*
X141857000Y-67166232D01*
X141837315Y-67233271D01*
X141798098Y-67271769D01*
X141702423Y-67330781D01*
X141651342Y-67362289D01*
X141527289Y-67486342D01*
X141435187Y-67635663D01*
X141435185Y-67635666D01*
X141435186Y-67635666D01*
X141380001Y-67802203D01*
X141380001Y-67802204D01*
X141380000Y-67802204D01*
X141369500Y-67904983D01*
X141369500Y-68723836D01*
X141349815Y-68790875D01*
X141333181Y-68811517D01*
X140780644Y-69364054D01*
X140719321Y-69397539D01*
X140649629Y-69392555D01*
X140593696Y-69350683D01*
X140569279Y-69285219D01*
X140569605Y-69263770D01*
X140570499Y-69255016D01*
X140570500Y-69255009D01*
X140570499Y-67904992D01*
X140559999Y-67802203D01*
X140504814Y-67635666D01*
X140412712Y-67486344D01*
X140288656Y-67362288D01*
X140139334Y-67270186D01*
X139972797Y-67215001D01*
X139972795Y-67215000D01*
X139870016Y-67204500D01*
X139870009Y-67204500D01*
X139192585Y-67204500D01*
X139125546Y-67184815D01*
X139104902Y-67168179D01*
X139081817Y-67145093D01*
X139048333Y-67083769D01*
X139045500Y-67057414D01*
X139045500Y-66293999D01*
X139065185Y-66226960D01*
X139117989Y-66181205D01*
X139154163Y-66173335D01*
X139157500Y-66169998D01*
X139157500Y-65020000D01*
X139657500Y-65020000D01*
X139657500Y-66169999D01*
X139869972Y-66169999D01*
X139869986Y-66169998D01*
X139972697Y-66159505D01*
X140139119Y-66104358D01*
X140139124Y-66104356D01*
X140288345Y-66012315D01*
X140412315Y-65888345D01*
X140504356Y-65739124D01*
X140504358Y-65739119D01*
X140559505Y-65572697D01*
X140559506Y-65572690D01*
X140569999Y-65469986D01*
X140570000Y-65469973D01*
X140570000Y-65020000D01*
X139657500Y-65020000D01*
X139157500Y-65020000D01*
X139157500Y-63370000D01*
X139657500Y-63370000D01*
X139657500Y-64520000D01*
X140569999Y-64520000D01*
X140569999Y-64070028D01*
X140569998Y-64070013D01*
X140559505Y-63967302D01*
X140504358Y-63800880D01*
X140504356Y-63800875D01*
X140412315Y-63651654D01*
X140288345Y-63527684D01*
X140139124Y-63435643D01*
X140139119Y-63435641D01*
X139972697Y-63380494D01*
X139972690Y-63380493D01*
X139869986Y-63370000D01*
X139657500Y-63370000D01*
X139157500Y-63370000D01*
X139152511Y-63365011D01*
X139102461Y-63350315D01*
X139056706Y-63297511D01*
X139045500Y-63246000D01*
X139045500Y-60589500D01*
X139065185Y-60522461D01*
X139117989Y-60476706D01*
X139169500Y-60465500D01*
X152487374Y-60465500D01*
X152487378Y-60465500D01*
X152526717Y-60456520D01*
X152533556Y-60455358D01*
X152573657Y-60450841D01*
X152611739Y-60437514D01*
X152618412Y-60435591D01*
X152657752Y-60426613D01*
X152694118Y-60409099D01*
X152700519Y-60406448D01*
X152738606Y-60393122D01*
X152772763Y-60371658D01*
X152778845Y-60368297D01*
X152815202Y-60350790D01*
X152846756Y-60325625D01*
X152852414Y-60321611D01*
X152886576Y-60300147D01*
X153010147Y-60176576D01*
X153010147Y-60176574D01*
X153020355Y-60166367D01*
X153020356Y-60166364D01*
X153952820Y-59233901D01*
X154014142Y-59200417D01*
X154083834Y-59205401D01*
G37*
%TD.AperFunction*%
%TA.AperFunction,Conductor*%
G36*
X153889455Y-49580185D02*
G01*
X153910097Y-49596819D01*
X154128181Y-49814903D01*
X154161666Y-49876226D01*
X154164500Y-49902584D01*
X154164500Y-56777415D01*
X154144815Y-56844454D01*
X154128181Y-56865096D01*
X152115097Y-58878181D01*
X152053774Y-58911666D01*
X152027416Y-58914500D01*
X138517378Y-58914500D01*
X138342622Y-58914500D01*
X138342620Y-58914500D01*
X138342614Y-58914501D01*
X138303295Y-58923475D01*
X138296438Y-58924640D01*
X138256338Y-58929159D01*
X138218259Y-58942484D01*
X138211576Y-58944409D01*
X138172246Y-58953387D01*
X138135898Y-58970891D01*
X138129474Y-58973552D01*
X138091398Y-58986876D01*
X138091392Y-58986879D01*
X138057233Y-59008340D01*
X138051147Y-59011704D01*
X138014798Y-59029209D01*
X137983259Y-59054361D01*
X137977586Y-59058386D01*
X137943426Y-59079851D01*
X137943425Y-59079852D01*
X137894997Y-59128278D01*
X137894993Y-59128284D01*
X137783424Y-59239853D01*
X137659852Y-59363424D01*
X137645848Y-59385710D01*
X137638389Y-59397581D01*
X137634369Y-59403248D01*
X137609210Y-59434796D01*
X137591704Y-59471147D01*
X137588340Y-59477233D01*
X137566879Y-59511392D01*
X137566876Y-59511398D01*
X137553552Y-59549474D01*
X137550891Y-59555898D01*
X137533387Y-59592246D01*
X137524409Y-59631576D01*
X137522484Y-59638259D01*
X137509159Y-59676338D01*
X137504640Y-59716438D01*
X137503475Y-59723295D01*
X137494501Y-59762614D01*
X137494500Y-59762624D01*
X137494500Y-67517383D01*
X137503475Y-67556703D01*
X137504640Y-67563561D01*
X137509158Y-67603653D01*
X137509160Y-67603659D01*
X137522485Y-67641744D01*
X137524410Y-67648427D01*
X137533386Y-67687751D01*
X137533387Y-67687753D01*
X137550893Y-67724106D01*
X137553555Y-67730533D01*
X137566879Y-67768608D01*
X137588336Y-67802757D01*
X137591701Y-67808846D01*
X137609206Y-67845196D01*
X137609210Y-67845202D01*
X137634361Y-67876741D01*
X137638386Y-67882414D01*
X137659852Y-67916574D01*
X137659855Y-67916578D01*
X137790489Y-68047212D01*
X137790495Y-68047217D01*
X138233181Y-68489903D01*
X138266666Y-68551226D01*
X138269500Y-68577584D01*
X138269500Y-69255001D01*
X138269501Y-69255019D01*
X138280000Y-69357796D01*
X138280001Y-69357799D01*
X138335185Y-69524331D01*
X138335187Y-69524336D01*
X138370068Y-69580888D01*
X138427288Y-69673656D01*
X138551344Y-69797712D01*
X138700666Y-69889814D01*
X138867203Y-69944999D01*
X138969991Y-69955500D01*
X139870008Y-69955499D01*
X139878765Y-69954604D01*
X139947457Y-69967369D01*
X139998345Y-70015246D01*
X140015270Y-70083035D01*
X139992859Y-70149213D01*
X139979055Y-70165642D01*
X133386518Y-76758181D01*
X133325195Y-76791666D01*
X133298837Y-76794500D01*
X126771163Y-76794500D01*
X126704124Y-76774815D01*
X126683482Y-76758181D01*
X126679722Y-76754421D01*
X126558385Y-76633084D01*
X126555851Y-76630392D01*
X126516229Y-76585668D01*
X126467061Y-76551730D01*
X126464051Y-76549515D01*
X126417028Y-76512674D01*
X126417026Y-76512673D01*
X126417025Y-76512672D01*
X126417023Y-76512671D01*
X126408476Y-76508824D01*
X126388938Y-76497805D01*
X126381226Y-76492482D01*
X126381224Y-76492481D01*
X126325366Y-76471296D01*
X126321907Y-76469863D01*
X126263609Y-76443626D01*
X126210554Y-76398162D01*
X126190501Y-76331232D01*
X126190499Y-76330550D01*
X126190499Y-75976163D01*
X126210184Y-75909124D01*
X126226818Y-75888482D01*
X128693184Y-73422116D01*
X131271922Y-70843378D01*
X131274614Y-70840844D01*
X131319332Y-70801229D01*
X131353272Y-70752055D01*
X131355462Y-70749079D01*
X131392326Y-70702028D01*
X131396172Y-70693480D01*
X131407197Y-70673935D01*
X131412517Y-70666227D01*
X131412516Y-70666227D01*
X131412518Y-70666226D01*
X131433705Y-70610358D01*
X131435132Y-70606916D01*
X131459647Y-70552446D01*
X131459647Y-70552445D01*
X131459650Y-70552439D01*
X131461338Y-70543221D01*
X131467366Y-70521603D01*
X131470688Y-70512845D01*
X131475296Y-70474888D01*
X131477889Y-70453540D01*
X131478453Y-70449836D01*
X131489219Y-70391084D01*
X131489218Y-70391083D01*
X131485612Y-70331463D01*
X131485499Y-70327718D01*
X131485499Y-62687328D01*
X131485499Y-54941159D01*
X131505184Y-54874124D01*
X131521813Y-54853487D01*
X132338482Y-54036819D01*
X132399806Y-54003334D01*
X132426164Y-54000500D01*
X141679783Y-54000500D01*
X141746822Y-54020185D01*
X141781357Y-54053375D01*
X141809860Y-54094081D01*
X141881505Y-54196401D01*
X142003818Y-54318714D01*
X142037303Y-54380037D01*
X142032319Y-54449729D01*
X141990447Y-54505662D01*
X141959471Y-54522577D01*
X141827912Y-54571646D01*
X141827906Y-54571649D01*
X141712812Y-54657809D01*
X141712809Y-54657812D01*
X141626649Y-54772906D01*
X141626645Y-54772913D01*
X141576403Y-54907620D01*
X141576401Y-54907627D01*
X141570000Y-54967155D01*
X141570000Y-55615000D01*
X142486314Y-55615000D01*
X142460507Y-55655156D01*
X142420000Y-55793111D01*
X142420000Y-55936889D01*
X142460507Y-56074844D01*
X142486314Y-56115000D01*
X141570000Y-56115000D01*
X141570000Y-56762844D01*
X141576401Y-56822372D01*
X141576403Y-56822379D01*
X141626645Y-56957086D01*
X141626649Y-56957093D01*
X141712809Y-57072187D01*
X141712812Y-57072190D01*
X141827906Y-57158350D01*
X141827913Y-57158354D01*
X141962620Y-57208596D01*
X141962627Y-57208598D01*
X142022155Y-57214999D01*
X142022172Y-57215000D01*
X142670000Y-57215000D01*
X142670000Y-56300501D01*
X142777685Y-56349680D01*
X142884237Y-56365000D01*
X142955763Y-56365000D01*
X143062315Y-56349680D01*
X143170000Y-56300501D01*
X143170000Y-57215000D01*
X143817828Y-57215000D01*
X143817844Y-57214999D01*
X143877372Y-57208598D01*
X143877379Y-57208596D01*
X144012086Y-57158354D01*
X144012093Y-57158350D01*
X144127187Y-57072190D01*
X144127190Y-57072187D01*
X144213350Y-56957093D01*
X144213354Y-56957086D01*
X144263596Y-56822379D01*
X144263598Y-56822372D01*
X144269999Y-56762844D01*
X144270000Y-56762827D01*
X144270000Y-56115000D01*
X143353686Y-56115000D01*
X143379493Y-56074844D01*
X143420000Y-55936889D01*
X143420000Y-55793111D01*
X143379493Y-55655156D01*
X143353686Y-55615000D01*
X144270000Y-55615000D01*
X144270000Y-54967172D01*
X144269999Y-54967155D01*
X144263598Y-54907627D01*
X144263596Y-54907620D01*
X144213354Y-54772913D01*
X144213350Y-54772906D01*
X144127190Y-54657812D01*
X144127187Y-54657809D01*
X144012093Y-54571649D01*
X144012088Y-54571646D01*
X143880528Y-54522577D01*
X143824595Y-54480705D01*
X143800178Y-54415241D01*
X143815030Y-54346968D01*
X143836175Y-54318720D01*
X143958495Y-54196401D01*
X144094035Y-54002830D01*
X144193903Y-53788663D01*
X144255063Y-53560408D01*
X144275659Y-53325000D01*
X144255063Y-53089592D01*
X144194373Y-52863091D01*
X144193905Y-52861344D01*
X144193904Y-52861343D01*
X144193903Y-52861337D01*
X144094035Y-52647171D01*
X144089188Y-52640248D01*
X143958494Y-52453597D01*
X143791402Y-52286506D01*
X143791401Y-52286505D01*
X143617873Y-52164999D01*
X143605841Y-52156574D01*
X143562216Y-52101997D01*
X143555024Y-52032498D01*
X143586546Y-51970144D01*
X143605836Y-51953428D01*
X143791401Y-51823495D01*
X143958495Y-51656401D01*
X144094035Y-51462830D01*
X144193903Y-51248663D01*
X144255063Y-51020408D01*
X144275659Y-50785000D01*
X144273322Y-50758294D01*
X144255063Y-50549596D01*
X144255063Y-50549592D01*
X144200217Y-50344903D01*
X144193905Y-50321344D01*
X144193904Y-50321343D01*
X144193903Y-50321337D01*
X144094035Y-50107171D01*
X144089187Y-50100248D01*
X143958496Y-49913600D01*
X143889868Y-49844972D01*
X143817075Y-49772179D01*
X143783592Y-49710859D01*
X143788576Y-49641167D01*
X143830447Y-49585233D01*
X143895912Y-49560816D01*
X143904758Y-49560500D01*
X153822416Y-49560500D01*
X153889455Y-49580185D01*
G37*
%TD.AperFunction*%
%TA.AperFunction,Conductor*%
G36*
X111979455Y-49580185D02*
G01*
X112000097Y-49596819D01*
X112748181Y-50344903D01*
X112781666Y-50406226D01*
X112784500Y-50432584D01*
X112784500Y-50645500D01*
X112764815Y-50712539D01*
X112712011Y-50758294D01*
X112660501Y-50769500D01*
X112459999Y-50769500D01*
X112459980Y-50769501D01*
X112357203Y-50780000D01*
X112357200Y-50780001D01*
X112190668Y-50835185D01*
X112190663Y-50835187D01*
X112041342Y-50927289D01*
X111917288Y-51051343D01*
X111917285Y-51051347D01*
X111865244Y-51135719D01*
X111813296Y-51182444D01*
X111744334Y-51193665D01*
X111680252Y-51165822D01*
X111654167Y-51135719D01*
X111602315Y-51051654D01*
X111478345Y-50927684D01*
X111329124Y-50835643D01*
X111329119Y-50835641D01*
X111162697Y-50780494D01*
X111162690Y-50780493D01*
X111059986Y-50770000D01*
X110210000Y-50770000D01*
X110210000Y-53369999D01*
X111059972Y-53369999D01*
X111059986Y-53369998D01*
X111162697Y-53359505D01*
X111329119Y-53304358D01*
X111329124Y-53304356D01*
X111478345Y-53212315D01*
X111602317Y-53088343D01*
X111654167Y-53004281D01*
X111706115Y-52957556D01*
X111775077Y-52946333D01*
X111839159Y-52974176D01*
X111865244Y-53004279D01*
X111917288Y-53088656D01*
X112041344Y-53212712D01*
X112190666Y-53304814D01*
X112357203Y-53359999D01*
X112459991Y-53370500D01*
X114660008Y-53370499D01*
X114762797Y-53359999D01*
X114929334Y-53304814D01*
X115078656Y-53212712D01*
X115202712Y-53088656D01*
X115294814Y-52939334D01*
X115349999Y-52772797D01*
X115360500Y-52670009D01*
X115360499Y-51469992D01*
X115359897Y-51464103D01*
X115349999Y-51367203D01*
X115349998Y-51367200D01*
X115310719Y-51248664D01*
X115294814Y-51200666D01*
X115202712Y-51051344D01*
X115078656Y-50927288D01*
X114929334Y-50835186D01*
X114762797Y-50780001D01*
X114762795Y-50780000D01*
X114660016Y-50769500D01*
X114660009Y-50769500D01*
X114459500Y-50769500D01*
X114392461Y-50749815D01*
X114346706Y-50697011D01*
X114335500Y-50645500D01*
X114335500Y-50313424D01*
X114335500Y-50016448D01*
X114335500Y-50016447D01*
X114335500Y-49972622D01*
X114326523Y-49933291D01*
X114325357Y-49926429D01*
X114320841Y-49886343D01*
X114307512Y-49848255D01*
X114305592Y-49841591D01*
X114296613Y-49802248D01*
X114279107Y-49765896D01*
X114276445Y-49759469D01*
X114264543Y-49725453D01*
X114260982Y-49655674D01*
X114295712Y-49595047D01*
X114357706Y-49562821D01*
X114381585Y-49560500D01*
X141935241Y-49560500D01*
X142002280Y-49580185D01*
X142048035Y-49632989D01*
X142057979Y-49702147D01*
X142028954Y-49765703D01*
X142022922Y-49772181D01*
X141881506Y-49913596D01*
X141793588Y-50039158D01*
X141782909Y-50054410D01*
X141781359Y-50056623D01*
X141726782Y-50100248D01*
X141679784Y-50109500D01*
X130847278Y-50109500D01*
X130843534Y-50109387D01*
X130783918Y-50105781D01*
X130783909Y-50105781D01*
X130725171Y-50116545D01*
X130721470Y-50117108D01*
X130662156Y-50124311D01*
X130653381Y-50127639D01*
X130631778Y-50133660D01*
X130627259Y-50134488D01*
X130622560Y-50135350D01*
X130568075Y-50159869D01*
X130564618Y-50161301D01*
X130508774Y-50182481D01*
X130508770Y-50182484D01*
X130501056Y-50187808D01*
X130481525Y-50198824D01*
X130472970Y-50202674D01*
X130425943Y-50239517D01*
X130422928Y-50241736D01*
X130373772Y-50275667D01*
X130373769Y-50275670D01*
X130334164Y-50320373D01*
X130331597Y-50323100D01*
X126538100Y-54116597D01*
X126535373Y-54119164D01*
X126490670Y-54158769D01*
X126490667Y-54158772D01*
X126456736Y-54207928D01*
X126454517Y-54210943D01*
X126417674Y-54257970D01*
X126413824Y-54266525D01*
X126402808Y-54286056D01*
X126397484Y-54293770D01*
X126397481Y-54293774D01*
X126376301Y-54349618D01*
X126374869Y-54353075D01*
X126350350Y-54407560D01*
X126348661Y-54416777D01*
X126342639Y-54438381D01*
X126339311Y-54447156D01*
X126332108Y-54506470D01*
X126331545Y-54510171D01*
X126320781Y-54568909D01*
X126320781Y-54568914D01*
X126324387Y-54628533D01*
X126324500Y-54632277D01*
X126324499Y-71078837D01*
X126304814Y-71145876D01*
X126288180Y-71166518D01*
X125171681Y-72283017D01*
X125110358Y-72316502D01*
X125040666Y-72311518D01*
X124984733Y-72269646D01*
X124960316Y-72204182D01*
X124960000Y-72195336D01*
X124960000Y-65350000D01*
X109727175Y-65350000D01*
X109660136Y-65330315D01*
X109614381Y-65277511D01*
X109604437Y-65208353D01*
X109633462Y-65144797D01*
X109639494Y-65138319D01*
X109715385Y-65062428D01*
X109799158Y-64978655D01*
X109799158Y-64978654D01*
X109830147Y-64947666D01*
X109851609Y-64913506D01*
X109855637Y-64907831D01*
X109880789Y-64876292D01*
X109880788Y-64876292D01*
X109880790Y-64876291D01*
X109898297Y-64839934D01*
X109901653Y-64833860D01*
X109923122Y-64799696D01*
X109936449Y-64761610D01*
X109939112Y-64755182D01*
X109956613Y-64718841D01*
X109965594Y-64679486D01*
X109967510Y-64672840D01*
X109980841Y-64634747D01*
X109985357Y-64594651D01*
X109986518Y-64587817D01*
X109995501Y-64548468D01*
X109995501Y-64373712D01*
X109995501Y-64370410D01*
X109995500Y-64370388D01*
X109995500Y-55792622D01*
X109995499Y-55792619D01*
X109994867Y-55789851D01*
X109986523Y-55753291D01*
X109985357Y-55746429D01*
X109983903Y-55733524D01*
X109980841Y-55706343D01*
X109967512Y-55668255D01*
X109965592Y-55661591D01*
X109956613Y-55622248D01*
X109939107Y-55585896D01*
X109936445Y-55579470D01*
X109923123Y-55541398D01*
X109923122Y-55541394D01*
X109901658Y-55507235D01*
X109898295Y-55501150D01*
X109880790Y-55464798D01*
X109855635Y-55433254D01*
X109851609Y-55427581D01*
X109830147Y-55393424D01*
X109706576Y-55269853D01*
X109706575Y-55269852D01*
X109704243Y-55267520D01*
X109704232Y-55267510D01*
X106756722Y-52320000D01*
X108160001Y-52320000D01*
X108160001Y-52669986D01*
X108170494Y-52772697D01*
X108225641Y-52939119D01*
X108225643Y-52939124D01*
X108317684Y-53088345D01*
X108441654Y-53212315D01*
X108590875Y-53304356D01*
X108590880Y-53304358D01*
X108757302Y-53359505D01*
X108757309Y-53359506D01*
X108860019Y-53369999D01*
X109709999Y-53369999D01*
X109710000Y-53369998D01*
X109710000Y-52320000D01*
X108160001Y-52320000D01*
X106756722Y-52320000D01*
X106256722Y-51820000D01*
X108160000Y-51820000D01*
X109710000Y-51820000D01*
X109710000Y-50770000D01*
X108860028Y-50770000D01*
X108860012Y-50770001D01*
X108757302Y-50780494D01*
X108590880Y-50835641D01*
X108590875Y-50835643D01*
X108441654Y-50927684D01*
X108317684Y-51051654D01*
X108225643Y-51200875D01*
X108225641Y-51200880D01*
X108170494Y-51367302D01*
X108170493Y-51367309D01*
X108160000Y-51470013D01*
X108160000Y-51820000D01*
X106256722Y-51820000D01*
X104757217Y-50320495D01*
X104757215Y-50320492D01*
X104626578Y-50189855D01*
X104626576Y-50189853D01*
X104614849Y-50182484D01*
X104592414Y-50168386D01*
X104586741Y-50164361D01*
X104555202Y-50139210D01*
X104555196Y-50139206D01*
X104518846Y-50121701D01*
X104512757Y-50118336D01*
X104478608Y-50096879D01*
X104478607Y-50096878D01*
X104478606Y-50096878D01*
X104459667Y-50090250D01*
X104440533Y-50083555D01*
X104434106Y-50080893D01*
X104397753Y-50063387D01*
X104397751Y-50063386D01*
X104358427Y-50054410D01*
X104351744Y-50052485D01*
X104321141Y-50041777D01*
X104313657Y-50039159D01*
X104313655Y-50039158D01*
X104313653Y-50039158D01*
X104273561Y-50034640D01*
X104266703Y-50033475D01*
X104227383Y-50024500D01*
X104227378Y-50024500D01*
X104183552Y-50024500D01*
X95860301Y-50024500D01*
X95793262Y-50004815D01*
X95747507Y-49952011D01*
X95742595Y-49939504D01*
X95740536Y-49933291D01*
X95714814Y-49855666D01*
X95649389Y-49749595D01*
X95630950Y-49682204D01*
X95651873Y-49615541D01*
X95705515Y-49570771D01*
X95754929Y-49560500D01*
X111912416Y-49560500D01*
X111979455Y-49580185D01*
G37*
%TD.AperFunction*%
%TD*%
M02*
